<svg width="280" height="240" viewBox="0 0 280 240" fill="none" xmlns="http://www.w3.org/2000/svg">
<g clip-path="url(#clip0_1004_28324)">
<g opacity="0.2">
<path d="M236.036 207.415C234.107 208.988 232.14 210.512 230.135 211.986C229.824 212.214 229.512 212.442 229.201 212.677C227.694 213.771 226.164 214.835 224.609 215.87C224.621 215.704 224.637 215.538 224.655 215.372C224.833 213.655 225.228 211.993 225.824 210.459C226.103 209.725 226.437 209.03 226.819 208.386C228.336 205.819 230.444 204.385 232.597 204.803C233.938 205.082 235.16 206.01 236.036 207.415Z" fill="#EE3E38"/>
<path d="M239.572 203.486C239.533 203.856 239.485 204.219 239.426 204.578C238.312 205.548 237.182 206.493 236.036 207.415C234.107 208.988 232.14 210.512 230.135 211.986C229.824 212.214 229.513 212.442 229.202 212.677C228.827 212.305 228.485 211.877 228.181 211.402C227.611 210.509 227.153 209.495 226.827 208.399C226.145 206.009 225.927 203.422 226.195 200.885C226.463 198.349 227.208 195.948 228.357 193.912C229.888 191.345 231.982 189.911 234.135 190.329C236.288 190.747 238.013 192.927 238.936 195.968C239.638 198.353 239.857 200.948 239.572 203.486Z" fill="#EE3E38"/>
<path d="M241.118 189.01C241.813 182.464 239.383 176.574 235.69 175.855C231.997 175.136 228.44 179.86 227.745 186.407C227.051 192.953 229.481 198.843 233.174 199.562C236.867 200.281 240.423 195.557 241.118 189.01Z" fill="#EE3E38"/>
<path d="M279.666 67.9452C279.009 74.207 277.356 80.2006 274.819 85.511L255.839 81.6206L272.993 88.9489C272.063 90.5375 271.055 92.0383 269.975 93.4406C273.603 101.95 275.014 111.863 273.983 121.589C272.951 131.315 269.536 140.29 264.286 147.071C267.355 154.242 268.851 162.45 268.6 170.732C260.531 183.45 250.686 194.859 239.434 204.592C238.315 205.553 237.182 206.493 236.036 207.415C234.107 208.988 232.14 210.512 230.135 211.986C229.474 211.813 228.824 211.616 228.181 211.388C227.383 211.115 226.599 210.797 225.832 210.445C220.57 208.013 215.86 203.787 212.156 198.173C208.451 192.559 205.878 185.746 204.682 178.393C203.487 171.04 203.711 163.394 205.332 156.192C206.954 148.99 209.918 142.475 213.939 137.276C213.612 136.513 213.303 135.738 213.013 134.95C212.926 134.722 212.844 134.494 212.757 134.259C210.4 127.602 209.329 120.243 209.645 112.872L209.683 112.109C209.706 111.697 209.734 111.283 209.765 110.872C209.811 110.291 209.865 109.707 209.926 109.123V109.068C210.425 104.356 211.492 99.7858 213.084 95.5413L236.224 111.324L215.125 90.8423C216.426 88.2308 217.931 85.8167 219.615 83.6418C217.415 78.4334 216.028 72.6685 215.54 66.7044C215.053 60.7403 215.475 54.7042 216.78 48.9701C218.086 43.2359 220.247 37.926 223.129 33.3694C226.012 28.8127 229.555 25.1065 233.538 22.4803C237.522 19.8541 241.861 18.364 246.287 18.1023C250.714 17.8405 255.132 18.8127 259.27 20.9587C263.407 23.1046 267.175 26.3785 270.34 30.5776C273.505 34.7766 275.999 39.8112 277.669 45.3694L251.681 64.1964L279.069 51.25C280.06 56.7112 280.262 62.3799 279.666 67.9452Z" fill="#EE3E38"/>
<path opacity="0.1" d="M268.592 170.718C260.523 183.436 250.679 194.845 239.426 204.578C238.312 205.548 237.182 206.493 236.036 207.415C234.107 208.988 232.14 210.512 230.135 211.986C229.474 211.813 228.824 211.616 228.181 211.388C227.383 211.115 226.599 210.797 225.832 210.445C220.57 208.013 215.86 203.787 212.156 198.173C208.451 192.558 205.878 185.746 204.682 178.393C203.487 171.04 203.711 163.394 205.332 156.192C206.954 148.99 209.918 142.475 213.939 137.276C213.612 136.513 213.303 135.738 213.013 134.95C212.926 134.722 212.844 134.494 212.757 134.259C210.4 127.602 209.329 120.243 209.645 112.872L209.683 112.109C209.706 111.697 209.734 111.283 209.765 110.872C209.811 110.291 209.865 109.707 209.926 109.123V109.068C210.125 108.135 212.757 108.919 216.768 110.796L217.615 111.203C218.502 111.635 219.449 112.112 220.444 112.634C222.615 113.767 225.013 115.104 227.543 116.583L227.709 116.68L228.061 116.887C245.077 126.879 267.459 142.911 264.25 147.05C267.33 154.22 268.836 162.43 268.592 170.718Z" fill="#EE3E38"/>
</g>
<g opacity="0.2">
<path d="M81.3555 226.805C80.2841 226.303 79.2203 225.787 78.1642 225.257C75.705 224.031 73.284 222.736 70.9014 221.37C71.3845 220.839 71.9328 220.427 72.5213 220.154C74.6463 219.165 76.9805 220.109 78.881 222.382C79.9068 223.629 80.7468 225.13 81.3555 226.805Z" fill="#EE3E38"/>
<path d="M78.8811 222.382C78.7366 223.379 78.4956 224.345 78.1643 225.257C75.7051 224.031 73.2841 222.735 70.9015 221.37C68.8283 220.188 66.7875 218.954 64.7789 217.669C64.6912 216.844 64.6519 216.011 64.6616 215.178C64.6702 214.31 64.7385 213.445 64.8657 212.594C65.3759 209.197 66.8198 206.492 68.9474 205.504C71.0749 204.515 73.4066 205.459 75.3071 207.736C75.7673 208.288 76.1891 208.896 76.5673 209.553C77.405 211.014 78.0505 212.66 78.4755 214.418C79.1196 216.98 79.2594 219.725 78.8811 222.382Z" fill="#EE3E38"/>
<path d="M71.0936 214.882C74.7637 213.311 76.4809 206.646 74.929 199.996C73.377 193.346 69.1437 189.228 65.4735 190.799C61.8034 192.37 60.0862 199.035 61.6381 205.685C63.1901 212.336 67.4234 216.453 71.0936 214.882Z" fill="#EE3E38"/>
<path d="M66.9928 199.545C70.6494 197.981 72.3614 191.342 70.8165 184.716C69.2717 178.09 65.055 173.987 61.3983 175.551C57.7417 177.114 56.0297 183.754 57.5746 190.379C59.1194 197.005 63.3361 201.109 66.9928 199.545Z" fill="#EE3E38"/>
<path d="M76.5542 209.553C75.845 210.115 75.1171 210.642 74.3705 211.132C73.167 211.924 71.9292 212.617 70.6638 213.205C69.5092 213.745 68.333 214.196 67.1408 214.556C66.3126 214.81 65.4835 215.016 64.6535 215.175C63.6229 215.375 62.5949 215.506 61.5693 215.569C49.2427 207.276 38.1763 197.132 28.7323 185.547C28.5971 185.056 28.4772 184.562 28.3471 184.061C25.9261 174.23 25.9674 163.591 28.4644 153.794C22.1494 148.051 17.4333 139.614 15.0664 129.823C13.8888 125.031 13.2859 120.015 13.2806 114.966H39.9977L13.5408 109.237C13.8347 105.943 14.3854 102.7 15.1837 99.5628C8.86827 93.8219 4.15204 85.3849 1.78563 75.5946C-4.1481 51.3707 5.18107 25.1497 22.6226 17.0163C34.2987 11.578 46.6483 15.6343 55.3193 26.1724L37.9339 60.6408L58.6331 30.8161C61.4338 35.345 63.5738 40.5532 64.9393 46.1638C66.4962 52.501 67.0422 59.2137 66.5413 65.858L47.758 74.3922L66.049 70.2702C65.7442 72.3604 65.3342 74.4198 64.8219 76.4342C71.1368 82.1759 75.8529 90.6126 78.22 100.402C79.3666 105.066 79.9691 109.943 80.0057 114.859V114.897C80.0057 115.277 80.0057 115.657 80.0057 116.037C80.0057 116.199 80.0057 116.358 80.0057 116.521C79.9166 121.346 79.279 126.124 78.1154 130.687C80.6819 133.015 82.9996 135.811 85.0032 138.996C85.0542 139.072 85.1027 139.148 85.1486 139.228C87.9739 143.774 90.1309 149.011 91.5033 154.655C96.7253 175.973 90.1155 198.846 76.5542 209.553Z" fill="#EE3E38"/>
<path opacity="0.1" d="M76.5538 209.553C75.8446 210.115 75.1167 210.642 74.3701 211.132C73.1667 211.924 71.9288 212.617 70.6634 213.206C69.5088 213.745 68.3326 214.196 67.1405 214.556C66.3122 214.81 65.4831 215.016 64.6532 215.175C63.6226 215.375 62.5945 215.507 61.569 215.569C49.2423 207.277 38.1759 197.132 28.7319 185.547C28.5967 185.057 28.4768 184.562 28.3467 184.062C25.9258 174.23 25.967 163.591 28.4641 153.795C22.149 148.052 17.433 139.614 15.066 129.823C14.1502 126.084 52.3418 123.068 69.7374 125.96L70.143 126.029C75.4237 126.952 78.6661 128.448 78.1023 130.663C80.6688 132.991 82.9865 135.787 84.9901 138.972C85.0411 139.048 85.0896 139.124 85.1355 139.204C87.9608 143.75 90.1178 148.986 91.4902 154.631C96.7249 175.973 90.1152 198.846 76.5538 209.553Z" fill="#EE3E38"/>
</g>
<path opacity="0.1" d="M97.5037 80.0416C97.6424 79.774 97.7188 79.4564 97.7231 79.1295C97.7231 77.1428 94.7358 75.5361 91.0521 75.5361C87.3684 75.5361 84.3862 77.1566 84.3862 79.1295C84.3913 79.506 84.4872 79.87 84.6592 80.166C80.5597 80.7845 77.7969 81.9488 77.7969 83.2756C77.7969 85.2589 83.9194 86.8655 91.4577 86.8655C98.996 86.8655 105.119 85.2589 105.119 83.2756C105.116 81.8521 102.014 80.629 97.5037 80.0416Z" fill="#D1193E"/>
<path opacity="0.1" d="M203.352 7.15557C203.572 6.72832 203.694 6.22203 203.701 5.70096C203.701 2.55334 198.961 0 193.114 0C187.267 0 182.528 2.55334 182.528 5.70096C182.538 6.2912 182.691 6.86044 182.964 7.32141C176.454 8.30612 172.068 10.1512 172.068 12.2657C172.068 15.4133 181.762 17.9667 193.752 17.9667C205.742 17.9667 215.436 15.4133 215.436 12.2657C215.436 10.0233 210.51 8.085 203.352 7.15557Z" fill="#D1193E"/>
<path opacity="0.1" d="M118.402 7.15557C118.622 6.72832 118.744 6.22203 118.751 5.70096C118.751 2.55334 114.011 0 108.164 0C102.317 0 97.5774 2.55334 97.5774 5.70096C97.588 6.2912 97.7413 6.86044 98.0137 7.32141C91.5034 8.30612 87.1182 10.1512 87.1182 12.2657C87.1182 15.4133 96.8249 17.9667 108.802 17.9667C120.779 17.9667 130.486 15.4133 130.486 12.2657C130.486 10.0233 125.56 8.085 118.402 7.15557Z" fill="#D1193E"/>
<g opacity="0.1">
<path d="M91.5625 36.9179C92.1594 36.4515 92.9605 36.8972 93.3686 37.6469C93.7768 38.3967 93.8942 39.3745 93.9962 40.2832C94.2232 42.3252 94.3865 44.6712 93.3712 46.2122C95.0319 39.3814 99.8151 34.1469 105.106 33.3833" fill="#3A0751"/>
<path d="M91.5625 36.9179C92.1594 36.4515 92.9605 36.8972 93.3686 37.6469C93.7768 38.3967 93.8942 39.3745 93.9962 40.2832C94.2232 42.3252 94.3865 44.6712 93.3712 46.2122C95.0319 39.3814 99.8151 34.1469 105.106 33.3833" stroke="#3A0751" stroke-width="3" stroke-miterlimit="10"/>
</g>
<g opacity="0.1">
<path d="M158.265 3.05093C158.647 2.75033 159.165 3.05093 159.428 3.51737C159.662 4.0302 159.799 4.61259 159.828 5.21384C159.974 6.52678 160.084 8.03322 159.428 9.01447C159.988 6.82163 160.992 4.88594 162.325 3.42783C163.657 1.96973 165.266 1.04782 166.966 0.76709" fill="#3A0751"/>
<path d="M158.265 3.05093C158.647 2.75033 159.165 3.05093 159.428 3.51737C159.662 4.0302 159.799 4.61259 159.828 5.21384C159.974 6.52678 160.084 8.03322 159.428 9.01447C159.988 6.82163 160.992 4.88594 162.325 3.42783C163.657 1.96973 165.266 1.04782 166.966 0.76709" stroke="#3A0751" stroke-width="3" stroke-miterlimit="10"/>
</g>
<g opacity="0.1">
<path d="M202.143 66.9708C202.525 66.6702 203.043 66.9708 203.306 67.4373C203.539 67.9501 203.677 68.5325 203.706 69.1338C203.852 70.4467 203.961 71.9531 203.306 72.9344C203.866 70.7416 204.87 68.8059 206.202 67.3478C207.535 65.8897 209.144 64.9677 210.844 64.687" fill="#3A0751"/>
<path d="M202.143 66.9708C202.525 66.6702 203.043 66.9708 203.306 67.4373C203.539 67.9501 203.677 68.5325 203.706 69.1338C203.852 70.4467 203.961 71.9531 203.306 72.9344C203.866 70.7416 204.87 68.8059 206.202 67.3478C207.535 65.8897 209.144 64.9677 210.844 64.687" stroke="#3A0751" stroke-width="3" stroke-miterlimit="10"/>
</g>
<g opacity="0.1">
<path d="M176.312 36.0648C176.386 36.4427 176.494 36.8071 176.634 37.1497C176.599 36.3722 176.46 35.6099 176.223 34.9004C176.212 35.2923 176.242 35.6843 176.312 36.0648Z" fill="black"/>
<path d="M124.605 91.5439L124.31 91.5788C124.409 91.5816 124.508 91.57 124.605 91.5439Z" fill="black"/>
</g>
<path d="M129.342 18.972C128.251 20.2089 127.48 21.7948 126.281 22.9108C124.837 24.2583 122.942 24.7697 121.179 25.4918C119.416 26.2139 117.608 27.3472 116.898 29.3132C116.296 30.9958 116.643 32.948 116.133 34.6686C115.585 36.4964 114.161 37.7782 113.072 39.2536C110.919 42.1628 109.962 46.1638 110.521 49.8954C110.906 52.4764 111.96 54.8604 112.585 57.3792C113.35 60.4612 113.457 63.6917 113.564 66.8877C113.763 72.8892 113.96 78.9495 112.962 84.8543C112.707 86.3366 112.018 108.874 110.684 108.829C114.225 108.418 117.786 108.373 121.345 108.325L174.662 107.634C172.205 103.281 170.636 77.5537 170.116 72.4228C169.218 63.5777 171.391 54.7222 171.646 45.8183C171.682 44.6712 171.682 43.493 171.333 42.415C170.965 41.2852 170.231 40.3212 169.986 39.1499C169.634 37.4742 170.34 35.757 170.363 34.0363C170.409 30.5812 167.812 27.9311 165.753 25.3709C163.769 22.9074 162.118 20.1087 160.07 17.7074C158.021 15.3061 155.447 13.271 152.519 12.9013C150.113 12.6007 147.723 13.4472 145.419 14.2834C142.672 15.2785 140.062 16.5361 137.146 16.4739C133.929 16.3979 131.947 16.7607 129.342 18.972Z" fill="#2F2E41"/>
<path d="M169.726 212.57C169.4 212.911 169.012 213.125 168.603 213.188C162.08 215.002 155.498 216.55 148.848 217.041C142.98 217.476 137.095 217.086 131.225 216.695C125.355 216.305 119.49 215.911 113.761 214.304C116.135 207.83 117.63 200.83 118.174 193.639C118.415 190.483 118.474 187.306 118.35 184.137C118.331 183.756 118.297 183.377 118.248 183.001C117.975 180.727 117.302 177.434 117.914 175.79C118.7 173.675 121.717 173.606 123.192 173.212C125.697 172.545 128.215 171.989 130.743 171.523C140.776 169.674 150.912 169.253 161.021 168.842C162.379 168.786 163.996 168.911 164.703 170.483C165.098 171.364 165.078 172.463 165.057 173.496C165.011 175.732 165.027 177.969 165.106 180.205C165.46 190.123 167.027 199.892 169.743 209.115C170.08 210.244 170.389 211.723 169.726 212.57Z" fill="#FBBEBE"/>
<path opacity="0.1" d="M130.031 89.5292C128.965 91.3085 127.462 92.504 125.95 93.5544C124.143 94.8188 122.281 95.9357 120.376 96.8989C119.99 97.6902 120.297 98.7405 120.631 99.5836C123.623 107.454 127.628 115.277 133.669 118.659C136.769 120.387 140.169 120.819 143.511 121.223C144.552 121.347 145.613 121.472 146.628 121.133C147.644 120.795 148.588 119.976 149.435 119.108C154.969 113.436 158.614 105.018 159.567 95.7069C159.649 94.8811 159.649 93.8688 159.126 93.4265C158.807 93.1605 158.401 93.2123 158.026 93.2158C155.58 93.2503 153.412 90.7972 152.282 87.8638C151.151 84.9304 150.85 81.5478 150.572 78.2551C150.572 78.1825 136.19 77.7714 134.891 77.7575C132.866 77.7334 132.197 78.0547 132.001 80.8672C131.794 83.9699 131.539 87 130.031 89.5292Z" fill="black"/>
<path d="M141.462 85.8496C152.311 85.8496 161.105 73.9383 161.105 59.2451C161.105 44.5519 152.311 32.6406 141.462 32.6406C130.614 32.6406 121.819 44.5519 121.819 59.2451C121.819 73.9383 130.614 85.8496 141.462 85.8496Z" fill="#FBBEBE"/>
<path d="M129.961 89.7972C128.895 91.5766 127.392 92.7721 125.879 93.8224C124.072 95.0869 122.211 96.2037 120.305 97.167C119.92 97.9582 120.226 99.0086 120.56 99.8516C123.553 107.722 127.558 115.545 133.599 118.927C136.698 120.655 140.099 121.087 143.441 121.491C144.482 121.615 145.543 121.74 146.558 121.401C147.573 121.063 148.517 120.244 149.364 119.377C154.899 113.704 158.544 105.286 159.497 95.975C159.579 95.1492 159.579 94.1369 159.056 93.6946C158.737 93.4286 158.331 93.4804 157.956 93.4838C155.51 93.5184 153.341 91.0653 152.211 88.1318C151.081 85.1984 150.78 81.8159 150.502 78.5231C150.502 78.4506 136.119 78.0394 134.821 78.0256C132.795 78.0014 132.127 78.3227 131.93 81.1352C131.724 84.2379 131.469 87.2681 129.961 89.7972Z" fill="#FBBEBE"/>
<path d="M155.868 90.7867C156.085 94.5182 126.475 98.0114 125.357 93.4091C124.694 94.4699 123.477 94.5562 122.508 94.1002C121.538 93.6441 120.722 92.7665 119.804 92.1204C118.273 91.0389 116.548 90.6381 114.852 90.2477C112.089 89.6154 108.88 89.1524 106.834 91.7472C106.127 92.6421 105.645 93.8203 104.936 94.7186C103.696 96.2803 101.944 96.7675 100.344 97.4827C98.0356 98.5193 95.908 100.178 93.7268 101.629C88.634 105.025 83.204 107.402 77.6068 108.684C76.4155 108.957 75.2165 109.178 74.0353 109.562C72.3772 110.101 70.719 111.023 69.5889 112.754C70.9103 115.042 72.8083 116.289 74.8466 117.191L94.5151 125.898C97.4743 127.207 100.479 128.544 103.069 130.89C107.383 134.788 110.189 141.194 111.724 147.9C113.26 154.606 113.656 161.682 114.038 168.686C114.204 171.73 114.355 174.905 113.472 177.725C118.053 178.456 122.686 178.352 127.248 177.417C131.638 176.512 135.98 174.833 140.421 174.888C145.268 174.954 149.965 177.082 154.743 178.232C159.521 179.383 164.794 179.418 168.819 175.745C167.962 174.18 167.832 171.944 167.799 170.002L167.697 160.801C167.651 159.691 167.706 158.577 167.86 157.484C168.202 155.515 169.164 153.863 169.779 152.022C170.965 148.467 170.799 144.403 170.865 140.503C170.932 136.602 171.335 132.411 173.281 129.557C174.557 127.694 176.342 126.637 178.154 125.984C181.251 124.865 184.49 124.792 187.689 124.485C198.119 123.472 208.322 119.873 217.792 113.867C217.225 112.246 215.909 111.327 214.708 110.574C211.866 108.795 208.855 106.97 205.738 107.368C204.23 107.561 202.738 108.273 201.236 108.014C199.812 107.765 198.552 106.673 197.169 106.152C196.121 105.758 195.024 105.699 193.947 105.478C191.462 104.963 189.131 103.578 186.832 102.206L181.026 98.7508C179.495 97.8351 177.901 96.8573 176.85 95.0883C176.508 94.5113 176.233 93.8617 175.86 93.3193C175.22 92.3899 174.33 91.8405 173.439 91.457C172.321 90.9298 171.128 90.7526 169.952 90.9387C169.145 91.1558 168.349 91.4385 167.567 91.7852C163.73 93.188 159.771 91.7299 155.868 90.7867Z" fill="#3A0751"/>
<path d="M178.336 229.942C167.879 233.347 157.229 235.543 146.499 236.507H146.481H119.539H119.524C114.702 236.062 109.951 235.383 105.269 234.468C106.65 228.898 108.554 223.591 110.934 218.678C111.315 217.983 111.613 217.211 111.817 216.391C111.929 215.628 111.986 214.851 111.988 214.073C112.112 211.688 112.795 209.42 113.937 207.598C114.468 207.989 115.003 208.366 115.544 208.728C121.671 212.85 128.344 215.275 135.172 215.862C138.763 216.112 142.364 216.014 145.945 215.569C154.022 214.688 162.42 212.656 168.925 206.205C169.198 205.936 169.468 205.656 169.736 205.369C172.897 209.17 174.726 214.995 176.035 220.44C176.813 223.626 177.532 226.805 178.336 229.942Z" fill="#F86E51"/>
<path d="M130.194 96.2702C131.184 95.5377 132.253 94.8881 133.38 94.8674C135.074 94.8467 136.59 96.2495 137.845 97.7974C139.005 99.2168 140.055 100.794 140.977 102.503C141.437 103.35 141.875 104.279 141.944 105.326C142.013 106.373 141.59 107.551 140.835 107.8C140.358 107.909 139.868 107.775 139.46 107.423C137.715 106.124 136.421 103.149 134.442 103.44C133.084 103.637 132.166 105.347 131.424 106.895C130.763 108.277 130.095 109.697 129.799 111.293C129.503 112.889 129.646 114.748 130.467 115.951C131.105 116.894 132.036 117.333 132.906 117.823C134.83 118.902 136.591 120.45 138.102 122.391C138.834 123.338 139.531 124.464 139.633 125.846C139.735 127.228 138.962 128.748 137.952 128.652C137.496 128.555 137.067 128.302 136.704 127.916C134.878 126.281 133.013 124.568 130.87 123.966C128.689 123.355 126.436 123.966 124.237 124.423C121.826 124.911 119.402 125.259 116.967 125.466C116.244 125.578 115.512 125.514 114.806 125.276C112.398 124.267 111.697 120.117 111.977 117.118C112.276 113.912 114.018 113.183 115.839 111.59C120.962 107.05 124.763 100.278 130.194 96.2702Z" fill="#FBBEBE"/>
<path d="M149.064 96.2702C148.072 95.5377 147.006 94.8881 145.876 94.8674C144.182 94.8467 142.666 96.2495 141.411 97.7974C140.252 99.217 139.203 100.794 138.281 102.503C137.825 103.35 137.386 104.279 137.317 105.326C137.248 106.373 137.669 107.551 138.424 107.8C138.902 107.909 139.392 107.775 139.802 107.423C141.547 106.124 142.84 103.149 144.817 103.44C146.177 103.637 147.095 105.347 147.835 106.895C148.496 108.277 149.166 109.697 149.46 111.293C149.753 112.889 149.613 114.748 148.791 115.951C148.156 116.894 147.223 117.333 146.353 117.823C144.428 118.902 142.666 120.451 141.154 122.391C140.422 123.338 139.728 124.464 139.623 125.846C139.518 127.228 140.294 128.748 141.304 128.652C141.76 128.556 142.189 128.302 142.552 127.916C144.378 126.281 146.243 124.568 148.386 123.966C150.567 123.355 152.82 123.966 155.019 124.423C157.424 124.934 159.85 125.29 162.281 125.487C163.005 125.599 163.738 125.535 164.445 125.297C166.85 124.288 167.552 120.138 167.274 117.139C166.973 113.933 165.233 113.204 163.409 111.611C158.297 107.05 154.498 100.278 149.064 96.2702Z" fill="#FBBEBE"/>
<path d="M127.881 49.6324C129.024 47.1862 130.381 44.5327 132.236 44.2493C134.825 43.852 136.848 48.2366 139.424 48.8032C142.741 49.5357 146.001 43.7864 149.118 45.8871C150.649 46.9236 151.792 49.7983 153.455 49.743C154.606 49.7084 155.542 48.2469 156.305 46.8131C157.592 44.3955 158.731 41.8394 159.71 39.1703C156.545 34.2537 151.94 33.1308 147.641 32.2359L140.414 30.7329C138.674 30.3701 136.904 30.0108 135.174 30.5118C133.611 30.9644 132.151 32.1046 130.736 33.3035C129.047 34.7408 125.075 37.0489 124.039 39.7231C123.317 41.5785 124.31 42.4423 125.241 44.3115C126.117 46.0852 126.997 47.8588 127.881 49.6324Z" fill="#2F2E41"/>
<path d="M116.424 110.028C113.289 110.876 110.088 111.185 106.896 110.947C105.643 110.858 104.386 110.681 103.138 110.84C101.633 111.034 100.187 111.708 98.7197 112.198C91.1201 114.731 83.1787 112.257 75.421 110.868C74.0511 110.623 72.6505 110.412 71.2934 110.771C70.051 111.099 68.9031 111.887 67.8036 112.734C66.0221 114.106 64.3169 115.652 62.7015 117.36C61.0101 119.15 59.3035 121.43 59.1861 124.329C59.0841 126.824 60.2066 129.121 61.5663 130.818C65.2398 135.424 70.6939 136.809 75.6123 135.562C77.4822 135.088 79.3062 134.273 81.1965 133.99C83.1328 133.699 85.0894 133.99 87.0359 133.865C90.99 133.627 94.7757 131.765 98.6151 130.469C104.611 128.447 110.812 127.788 116.967 128.52C116.914 128.552 116.856 128.567 116.797 128.564C116.739 128.561 116.682 128.541 116.63 128.505C116.578 128.469 116.533 128.418 116.497 128.356C116.461 128.293 116.436 128.221 116.424 128.144C115.972 126.457 115.949 124.623 115.957 122.83C115.977 118.48 116.128 114.361 116.424 110.028Z" fill="#3A0751"/>
<path d="M122.638 55.9108C122.041 55.7 121.812 54.6773 121.273 54.2661C120.735 53.855 120.061 54.1797 119.674 54.7913C119.314 55.4385 119.118 56.2267 119.118 57.0371C119.07 58.7848 119.421 60.5099 120.125 61.9768C120.828 63.4436 121.848 64.5807 123.046 65.2327C122.513 62.0875 122.307 58.8568 122.434 55.6343L122.638 55.9108Z" fill="#FBBEBE"/>
<path d="M160.284 55.9108C160.881 55.7 161.108 54.6773 161.646 54.2661C162.184 53.855 162.858 54.1797 163.246 54.7913C163.607 55.4376 163.802 56.2264 163.802 57.0371C163.85 58.7848 163.498 60.5099 162.795 61.9768C162.092 63.4436 161.071 64.5807 159.873 65.2327C160.406 62.0875 160.613 58.8568 160.485 55.6343L160.284 55.9108Z" fill="#FBBEBE"/>
<path d="M163.172 108.525C167.06 109.724 176.417 110.253 180.402 110.073C182.221 109.997 184.034 109.776 185.853 109.783C188.971 109.783 192.083 110.474 195.193 110.194C199.21 109.821 203.157 107.82 207.165 108.335C209.134 108.591 211.029 109.441 212.907 110.291C214.785 111.141 216.831 112.101 218.152 114.167C219.376 116.082 219.823 118.659 220.229 121.133C220.456 122.515 220.683 123.942 220.484 125.327C220.104 127.957 218.315 129.736 216.598 131.063C214.558 132.638 212.318 133.993 209.966 133.92C208.57 133.879 207.213 133.333 205.884 132.766C202.075 131.146 198.182 129.311 194.203 129.715C191.42 130.006 188.639 131.395 185.902 130.645C184.292 130.203 182.84 129.049 181.31 128.282C177.58 126.433 168.113 126.924 164.159 127.435C164.389 124.426 164.361 121.392 164.59 118.379C164.769 116.075 164.94 113.687 164.394 111.49C164.052 110.173 163.937 109.458 163.172 108.525Z" fill="#3A0751"/>
<path opacity="0.1" d="M156.284 45.0859C155.519 46.5198 154.585 47.9813 153.435 48.0159C151.769 48.0712 150.629 45.2034 149.098 44.16C145.993 42.0592 142.741 47.8086 139.404 47.0761C136.828 46.5094 134.812 42.1249 132.215 42.5222C130.361 42.8055 129.003 45.4591 127.861 47.9053C126.976 46.134 126.093 44.3604 125.21 42.5844C124.7 41.5479 124.146 40.805 123.899 40.038C123.404 41.6826 124.333 42.5533 125.21 44.312C126.088 46.0706 126.975 47.8604 127.861 49.6329C129.003 47.1866 130.361 44.5331 132.215 44.2498C134.805 43.8524 136.828 48.237 139.404 48.8036C142.72 49.5361 145.981 43.7868 149.098 45.8875C150.629 46.9241 151.772 49.7987 153.435 49.7434C154.585 49.7089 155.522 48.2474 156.284 46.8135C157.571 44.3959 158.71 41.8398 159.69 39.1708C159.552 38.9565 159.409 38.7492 159.264 38.5488C158.384 40.819 157.388 43.0033 156.284 45.0859Z" fill="black"/>
<path opacity="0.1" d="M145.148 132.346C144.661 134.754 144.424 137.243 144.444 139.74C144.444 144.083 145.077 147.873 146.015 149.908C146.095 150.876 146.181 151.836 146.271 152.779C144.947 151.397 143.975 146.857 143.975 141.467C143.972 137.784 144.426 134.498 145.148 132.346Z" fill="black"/>
<path opacity="0.1" d="M133.615 132.346C134.101 134.754 134.337 137.243 134.316 139.74C134.316 144.083 133.686 147.873 132.747 149.908C132.668 150.876 132.579 151.836 132.492 152.779C133.816 151.397 134.788 146.857 134.788 141.467C134.778 137.784 134.324 134.498 133.615 132.346Z" fill="black"/>
<path opacity="0.1" d="M139.684 197.531C139.557 198.089 139.526 198.679 139.593 199.255C139.66 199.832 139.824 200.38 140.072 200.858C140.238 200.359 140.287 199.803 140.213 199.264C140.139 198.726 139.946 198.231 139.659 197.845L139.684 197.531Z" fill="black"/>
</g>
<defs>
<clipPath id="clip0_1004_28324">
<rect width="280" height="240" fill="white"/>
</clipPath>
</defs>
</svg>
