<svg width="280" height="240" viewBox="0 0 280 240" fill="none" xmlns="http://www.w3.org/2000/svg">
<g clip-path="url(#clip0_1004_28104)">
<path d="M54.137 49.1622C68.592 49.1622 80.3101 38.1568 80.3101 24.5811C80.3101 11.0053 68.592 0 54.137 0C39.682 0 27.9639 11.0053 27.9639 24.5811C27.9639 38.1568 39.682 49.1622 54.137 49.1622Z" fill="#EE3E38"/>
<path d="M135.647 50.9975C134.783 49.6296 131.046 51.0942 130.36 49.8528C129.675 48.6159 133.147 46.7312 135.13 42.4258C135.488 41.6494 137.742 36.7566 136.074 35.2468C132.91 32.3851 118.436 44.1947 113.371 40.33C112.259 39.4819 111.483 37.7888 108.118 35.0398C106.78 33.9462 105.971 33.4525 105.187 33.6362C104.076 33.8968 103.988 35.2938 102.796 38.0406C101.009 42.16 99.9516 41.9113 98.9103 45.1979C98.1372 47.6377 98.3138 49.0561 97.4041 49.3324C96.1169 49.7235 94.932 47.1357 93.3006 47.3674C91.6359 47.6039 90.6295 50.617 90.3116 52.8729C89.715 57.1064 91.3704 59.9 92.2879 62.8374C93.285 66.0296 93.8768 70.8843 91.5742 77.7568L68.7832 138.065C73.8147 125.69 88.3835 91.7665 94.5052 79.1604C96.2725 75.5213 98.2238 71.8302 102.23 70.3734C106.088 68.9708 111.385 69.8082 118.139 68.2801C118.928 68.1017 121.117 67.5786 121.392 66.3695C121.62 65.3698 120.333 64.8119 120.531 63.8756C120.796 62.6198 123.328 62.6044 126.439 61.1556C128.633 60.1339 130 58.9189 131.175 57.874C131.529 57.559 136.797 52.8184 135.647 50.9975Z" fill="#F2F2F2"/>
<path d="M45.9807 82.7459C45.0166 82.7494 44.7038 84.8945 43.8569 84.8529C43.0129 84.8116 43.0297 82.6674 41.3521 80.5108C41.0496 80.1219 39.143 77.6711 37.8725 78.0047C35.4644 78.6371 37.4597 88.7164 33.9785 89.9362C33.2146 90.2039 32.1057 90.0734 29.6984 90.8311C28.7407 91.1325 28.2491 91.3631 28.1191 91.7771C27.9347 92.3646 28.6393 92.8084 29.7309 94.1502C31.368 96.1626 30.933 96.5781 32.35 98.0064C33.402 99.0667 34.1943 99.3946 34.0762 99.8937C33.9091 100.6 32.2149 100.399 31.8653 101.218C31.5085 102.054 32.7928 103.387 33.88 104.185C35.9203 105.681 37.8578 105.724 39.6576 106.149C41.6135 106.61 44.3213 107.738 47.2484 110.782L72.189 138.689C67.1737 132.799 53.6492 116.295 48.8277 109.836C47.4358 107.972 46.0698 106.007 46.4646 103.74C46.8446 101.557 48.8107 99.3568 49.9609 95.8027C50.0952 95.3876 50.4534 94.2278 49.901 93.7519C49.4444 93.3585 48.7813 93.791 48.3491 93.4296C47.7694 92.945 48.4918 91.7735 48.6324 89.9212C48.7315 88.6152 48.4909 87.6346 48.284 86.7913C48.2216 86.5371 47.264 82.7413 45.9807 82.7459Z" fill="#F2F2F2"/>
<path d="M65.2137 86.8008L64.6328 81.9312L64.8982 81.562C66.1262 79.8549 66.7522 78.1878 66.7596 76.6053C66.7609 76.3538 66.7484 76.1021 66.7359 75.8459C66.6858 74.8301 66.6232 73.5674 67.3242 72.0954C67.7173 71.2748 68.8214 69.3749 70.4813 69.6101C70.9282 69.6689 71.2662 69.8616 71.5228 70.0874C71.5604 70.031 71.5992 69.9745 71.6405 69.9134C72.1575 69.1727 72.5669 68.8553 72.9612 68.5496C73.2641 68.3145 73.5771 68.0723 74.0678 67.4985C74.2831 67.2469 74.4508 67.0259 74.5923 66.8402C75.0217 66.2782 75.5825 65.608 76.5714 65.6198C77.628 65.6668 78.1813 66.4874 78.5481 67.0306C79.2028 67.9993 79.4994 68.6977 79.696 69.1609C79.7673 69.3302 79.8487 69.5207 79.89 69.5795C80.2305 70.0497 82.9983 69.61 84.041 69.4501C86.3832 69.0833 88.4099 68.7659 89.2449 70.1532C89.8433 71.1455 89.3989 72.4575 87.8842 74.1576C87.4122 74.6866 86.9102 75.0887 86.4646 75.4038C86.8339 75.6107 87.1643 75.9281 87.2983 76.4266C87.6138 77.607 86.5334 78.7898 84.0886 79.9466C83.4815 80.2358 82.6641 80.6215 81.5186 80.8072C80.9791 80.8942 80.4934 80.9154 80.0778 80.9272C80.069 81.1529 80.0127 81.3974 79.8663 81.649C79.4369 82.3897 78.5431 82.7424 77.1961 82.6577C75.7139 82.5849 74.4934 82.3192 73.4169 82.0864C72.4767 81.8842 71.6668 81.7125 71.0309 81.7525C69.8517 81.8418 68.9428 82.7283 67.8763 83.8781L65.2137 86.8008Z" fill="#F2F2F2"/>
<path d="M67.9084 57.807L63.0402 59.5699L62.5927 59.4224C60.523 58.7398 58.6472 58.594 57.0154 58.9886C56.756 59.0513 56.5 59.1265 56.2392 59.2029C55.2058 59.506 53.9211 59.8831 52.2273 59.6197C51.2824 59.4707 49.0456 58.9496 48.8667 57.382C48.8139 56.9611 48.9267 56.6051 49.0941 56.3147C49.0265 56.2949 48.9585 56.274 48.8851 56.252C47.9911 55.9702 47.5603 55.6788 47.1455 55.3981C46.8264 55.1825 46.4976 54.9597 45.7822 54.6594C45.4685 54.5276 45.1983 54.4313 44.9711 54.3499C44.2834 54.1024 43.4509 53.7629 43.2122 52.8615C42.9927 51.8897 43.6975 51.1789 44.1639 50.7079C44.9956 49.8674 45.6396 49.4208 46.0668 49.1247C46.2231 49.017 46.3986 48.8947 46.4487 48.8423C46.8467 48.4137 45.6918 46.0108 45.2626 45.104C44.2907 43.0693 43.4497 41.3087 44.6668 40.1983C45.537 39.403 47.001 39.4739 49.1362 40.4187C49.8008 40.7133 50.3423 41.0673 50.7798 41.3923C50.8993 41.0043 51.1424 40.6235 51.6219 40.3754C52.7576 39.7894 54.2497 40.4709 56.0614 42.3984C56.5132 42.8766 57.1178 43.5214 57.5996 44.5149C57.8261 44.9829 57.9711 45.4188 58.0886 45.7934C58.3233 45.7441 58.5895 45.7333 58.8858 45.8025C59.7575 46.0047 60.3475 46.7272 60.602 47.9723C60.9028 49.3373 60.9388 50.5135 60.9721 51.5506C61.0023 52.4559 61.0309 53.2353 61.2334 53.8028C61.6246 54.8514 62.7681 55.4522 64.2229 56.1294L67.9084 57.807Z" fill="#F2F2F2"/>
<path d="M65.2137 43.4605L64.6328 38.5908L64.8982 38.2217C66.1262 36.5146 66.7522 34.8475 66.7596 33.265C66.7609 33.0134 66.7484 32.7618 66.7359 32.5055C66.6858 31.4897 66.6232 30.2271 67.3242 28.7551C67.7173 27.9345 68.8214 26.0346 70.4813 26.2697C70.9282 26.3285 71.2662 26.5213 71.5228 26.747C71.5604 26.6906 71.5992 26.6342 71.6405 26.573C72.1575 25.8323 72.5669 25.5149 72.9612 25.2092C73.2641 24.9741 73.5771 24.7319 74.0678 24.1582C74.2831 23.9066 74.4508 23.6856 74.5923 23.4998C75.0217 22.9379 75.5825 22.2677 76.5714 22.2794C77.628 22.3265 78.1813 23.1471 78.5481 23.6903C79.2028 24.659 79.4994 25.3574 79.696 25.8206C79.7673 25.9899 79.8487 26.1803 79.89 26.2391C80.2305 26.7094 82.9983 26.2697 84.041 26.1098C86.3832 25.743 88.4099 25.4256 89.2449 26.8129C89.8433 27.8051 89.3989 29.1172 87.8842 30.8172C87.4122 31.3463 86.9102 31.7484 86.4646 32.0635C86.8339 32.2704 87.1643 32.5878 87.2983 33.0863C87.6138 34.2667 86.5334 35.4494 84.0886 36.6063C83.4815 36.8955 82.6641 37.2812 81.5186 37.4669C80.9791 37.5539 80.4934 37.5751 80.0778 37.5868C80.069 37.8126 80.0127 38.0571 79.8663 38.3087C79.4369 39.0494 78.5431 39.4021 77.1961 39.3174C75.7139 39.2445 74.4934 38.9788 73.4169 38.746C72.4767 38.5438 71.6668 38.3722 71.0309 38.4121C69.8517 38.5015 68.9428 39.388 67.8763 40.5378L65.2137 43.4605Z" fill="#F2F2F2"/>
<path d="M70.519 137.985L69.4324 137.346L68.1655 137.482C68.1455 137.371 68.0766 137.117 67.9728 136.72C67.4057 134.543 65.6769 127.917 64.2348 117.481C63.2283 110.197 62.6588 102.708 62.5411 95.2186C62.4234 87.7177 62.8015 82.0392 63.1044 77.4752C63.3335 74.0328 63.6114 70.755 63.8843 67.5619C64.6103 59.0311 65.2951 50.973 64.7856 42.052C64.6729 40.0604 64.4363 35.9149 61.8576 31.5038C60.3616 28.9455 58.3012 26.6741 55.7324 24.7554L57.3297 22.8696C60.1651 24.9905 62.4447 27.5065 64.1059 30.347C66.965 35.2378 67.2229 39.7548 67.3468 41.925C67.8651 51.0036 67.1728 59.1394 66.4393 67.7524C66.1689 70.9338 65.891 74.1974 65.6631 77.6257C65.3627 82.1474 64.9884 87.7765 65.1048 95.1809C65.22 102.581 65.7833 109.978 66.776 117.171C68.2006 127.475 69.9043 134.002 70.4639 136.146C70.7618 137.291 70.8244 137.531 70.519 137.985Z" fill="#F2F2F2"/>
<path d="M51.0309 28.5813C50.9257 28.5813 50.8193 28.579 50.7117 28.5719C48.5285 28.4614 46.5068 27.234 44.7017 24.9249C43.8555 23.8386 43.4223 22.5994 42.5586 20.1282C42.4246 19.7472 41.7737 17.8144 41.3781 15.155C41.1189 13.4174 41.1515 12.6908 41.5183 12.0489C41.9251 11.3341 42.5836 10.8356 43.3247 10.4994C43.2921 10.2689 43.3184 10.0314 43.4248 9.78923C43.8617 8.7852 45.0234 8.91689 45.6518 8.98037C45.9698 9.01799 46.3666 9.06737 46.7947 9.0462C47.4682 9.01565 47.83 8.82751 48.3783 8.54534C48.9028 8.27494 49.555 7.9387 50.5227 7.75294C52.4305 7.37908 54.029 7.88697 54.556 8.0539C57.3288 8.92155 58.6958 10.9461 60.2781 13.2904C60.5936 13.7606 61.6764 15.4724 62.3912 17.8191C62.9069 19.5121 62.8343 20.2645 62.6791 20.8241C62.3636 21.9739 61.6188 22.6323 59.7273 24.0855C57.7519 25.6068 56.7605 26.3686 55.9092 26.8319C53.9276 27.9064 52.6833 28.5813 51.0309 28.5813Z" fill="#F2F2F2"/>
<path d="M83.6289 53.9584L83.6036 54.3506L82.7969 66.8692L101.6 68.7249L96.3436 52.5059L83.6289 53.9584Z" fill="#A0616A"/>
<path d="M140.635 53.0932C140.653 53.0961 140.681 53.1005 140.714 53.1057C141.367 53.2071 145.312 53.7788 149.289 52.3558C150.974 51.7529 150.399 51.6027 154.152 49.5069C158.552 47.0498 159.681 47.067 160.009 45.9212C160.663 43.6335 157.169 40.037 154.857 40.2738C154.248 40.3361 153.597 40.677 152.583 40.4459C152.36 40.3951 151.384 40.1728 150.909 39.4147C150.485 38.7383 150.844 38.2505 150.674 37.6958C150.226 36.2398 146.494 35.5132 143.222 36.0266C141.34 36.3219 139.876 37.128 137.025 38.7282C132.064 41.5135 129.583 42.9061 129.025 45.0397C128.497 47.0621 129.765 47.9335 128.843 50.0983C127.984 52.114 126.619 51.9794 126.15 53.61C125.394 56.234 128.198 59.1138 129.366 60.3135C130.647 61.6288 131.872 62.3507 133.498 63.309C135.539 64.5119 136.559 65.1133 137.786 65.0521C140.01 64.9412 146.62 65.3188 146.706 63.5901C146.738 62.9422 154.755 63.4727 150.808 56.4976C150.323 55.642 140.839 56.5559 140.713 56.0644" fill="#2F2E41"/>
<path d="M132.825 56.3364L132.8 56.7286L131.993 69.2472L150.796 71.1028L145.54 54.8838L132.825 56.3364Z" fill="#FFB6B6"/>
<path d="M280 138.392C280 138.55 279.864 138.678 279.696 138.678H0V138.107H279.696C279.864 138.107 280 138.235 280 138.392Z" fill="#E6E6E6"/>
<path d="M186.719 120.309C189.735 123.36 193.856 124.371 195.923 122.568C197.99 120.765 197.22 116.831 194.202 113.78C193.015 112.545 191.529 111.596 189.871 111.011L176.917 98.2373L170.664 104.074L184.098 116.047C184.597 117.644 185.496 119.106 186.719 120.309Z" fill="#FFB6B6"/>
<path d="M159.543 111.554C163.737 112.899 167.877 111.956 168.788 109.449C169.699 106.942 167.037 103.819 162.84 102.474C161.171 101.916 159.385 101.74 157.629 101.963L139.778 96.4746L137.215 104.397L155.085 108.966C156.329 110.151 157.858 111.038 159.543 111.554Z" fill="#A0616A"/>
<path d="M100.309 63.5576C100.309 63.5576 89.2431 76.0601 95.6446 81.2329C102.046 86.4057 130.634 105.555 130.634 105.555L141.778 107.185L144.629 97.0674L119.463 79.5543L100.309 63.5576Z" fill="#3A0751"/>
<path d="M142.44 60.7738C149.361 60.7738 154.971 55.5045 154.971 49.0046C154.971 42.5046 149.361 37.2354 142.44 37.2354C135.519 37.2354 129.908 42.5046 129.908 49.0046C129.908 55.5045 135.519 60.7738 142.44 60.7738Z" fill="#FFB6B6"/>
<path d="M138.403 49.7665C138.422 49.7694 138.449 49.7738 138.483 49.779C139.135 49.8804 143.08 50.4521 147.058 49.0291C148.743 48.4263 148.168 48.276 151.921 46.1802C156.32 43.7231 157.449 43.7403 157.777 42.5946C158.431 40.3068 154.938 36.7103 152.626 36.9471C152.017 37.0095 151.365 37.3503 150.351 37.1192C150.128 37.0684 149.153 36.8462 148.678 36.088C148.253 35.4117 148.613 34.9238 148.442 34.3691C147.994 32.9131 144.262 32.1865 140.99 32.6999C139.108 32.9952 137.645 33.8013 134.794 35.4016C129.832 38.1868 127.351 39.5794 126.794 41.7131C126.265 43.7354 127.534 44.6068 126.611 46.7716C125.752 48.7873 124.388 48.6527 123.918 50.2833C123.163 52.9073 125.967 55.7872 127.135 56.9869C128.416 58.3021 129.64 59.024 131.266 59.9823C133.307 61.1852 134.328 61.7866 135.555 61.7255C137.779 61.6145 139.991 59.7213 140.077 57.9926C140.11 57.3447 139.822 57.1504 139.11 54.9232C138.813 53.9953 138.607 53.2292 138.482 52.7378" fill="#2F2E41"/>
<path d="M218.254 155.543L231.276 170.832L238.15 161.319L228.021 152.486L218.254 155.543Z" fill="#FFB6B6"/>
<path d="M164.717 118.513C164.717 118.513 204.753 122.929 208.067 125.987C211.381 129.044 231.276 154.864 231.276 154.864L222.956 160.98L201.504 139.56L155.774 139.225L164.717 118.513Z" fill="#2F2E41"/>
<path d="M186.421 118.513L199.443 133.801L206.317 124.288L196.188 115.455L186.421 118.513Z" fill="#FFB6B6"/>
<path d="M197.634 129.384C197.634 129.384 194.74 128.705 194.74 131.083C194.74 133.461 195.464 140.596 195.464 140.596C195.464 140.596 228.744 135.16 228.744 131.762C228.744 128.365 219.7 129.045 219.7 129.045L206.678 123.269L197.634 129.384Z" fill="#2F2E41"/>
<path d="M129.628 196.652L135.777 218.055L145.544 216.356L143.374 194.273L129.628 196.652Z" fill="#A0616A"/>
<path d="M137.224 216.696L133.607 217.375L130.713 226.548C130.713 226.548 135.415 228.247 135.415 231.644C135.415 235.042 137.224 237.42 144.459 237.08C151.694 236.74 152.417 237.08 152.417 234.362C152.417 231.644 146.991 217.375 146.991 217.375C146.991 217.375 147.353 211.6 143.012 211.94C138.671 212.279 137.224 216.696 137.224 216.696Z" fill="#2F2E41"/>
<path d="M96.5596 196.319L96.9792 218.484L106.893 219.069L110.509 197.153L96.5596 196.319Z" fill="#A0616A"/>
<path d="M98.7343 217.496L95.0496 217.329L89.8662 225.565C89.8662 225.565 93.9874 228.287 93.1072 231.582C92.227 234.877 93.3653 237.597 100.471 238.921C107.576 240.245 108.19 240.74 108.894 238.104C109.598 235.467 108.032 220.387 108.032 220.387C108.032 220.387 109.879 214.868 105.58 214.206C101.282 213.543 98.7343 217.496 98.7343 217.496Z" fill="#2F2E41"/>
<path d="M100.688 63.815L81.1545 62.4561L76.8136 67.5521C76.8136 67.5521 74.6432 101.865 76.0902 105.263C77.5371 108.66 76.4519 128.025 76.4519 128.025L125.695 124.797L114.796 100.167L115.158 85.8978L105.391 68.5713L100.688 63.815Z" fill="#3A0751"/>
<path d="M78.6227 120.891C78.6227 120.891 70.6645 131.762 73.5584 137.538C76.4523 143.313 96.0819 176.848 96.0819 176.848L93.5498 208.103L110.913 206.744L113.807 173.111L101.774 145.691L103.944 142.634L122.031 163.358L128.543 199.369L145.906 197.331L136.501 144.672L125.509 124.376L78.6227 120.891Z" fill="#2F2E41"/>
<path d="M147.353 62.796L132.884 61.437L120.947 72.3085C120.947 72.3085 115.159 87.9363 116.244 96.4297C117.329 104.923 126.734 125.987 126.734 125.987L141.566 115.795L158.567 116.474V84.6687L149.886 66.8728L147.353 62.796Z" fill="#F2C85B"/>
<path d="M144.545 66.8692C144.545 66.8692 152.866 67.8833 156.465 73.6983C160.065 79.5133 186.015 106.875 186.015 106.875L181.099 111.1L155.53 95.6061L145.712 79.7473L144.545 66.8692Z" fill="#F2C85B"/>
<path d="M125.468 122.42C125.468 122.42 124.202 136.519 132.16 138.557C140.119 140.595 160.738 138.897 160.738 138.897L173.76 107.301L186.421 121.57L198.72 116.135C198.72 116.135 185.698 81.8213 178.463 81.8213C171.228 81.8213 159.653 91.3339 159.653 91.3339L140.842 115.115L125.468 122.42Z" fill="#2F2E41"/>
<path d="M229.467 166.415C229.467 166.415 226.573 165.736 226.573 168.114C226.573 170.492 227.297 177.626 227.297 177.626C227.297 177.626 260.577 172.191 260.577 168.793C260.577 165.396 251.533 166.075 251.533 166.075L238.511 160.3L229.467 166.415Z" fill="#2F2E41"/>
<path d="M76.9223 43.0097C80.6262 43.0097 83.6288 40.1898 83.6288 36.7112C83.6288 33.2326 80.6262 30.4126 76.9223 30.4126C73.2184 30.4126 70.2158 33.2326 70.2158 36.7112C70.2158 40.1898 73.2184 43.0097 76.9223 43.0097Z" fill="#2F2E41"/>
<path d="M92.4098 60.0615C100.476 60.0615 107.015 53.9203 107.015 46.3447C107.015 38.7691 100.476 32.6279 92.4098 32.6279C84.3436 32.6279 77.8047 38.7691 77.8047 46.3447C77.8047 53.9203 84.3436 60.0615 92.4098 60.0615Z" fill="#A0616A"/>
<path d="M87.7795 61.3829C86.2273 62.1552 81.8594 59.3199 80.2966 55.5207C79.2912 53.0766 76.8469 53.4832 75.2871 50.4352C74.3783 48.6591 77.0923 46.9217 76.6446 45.3861C75.8335 42.6038 76.8504 40.1144 76.98 39.8095C78.0983 37.177 79.7468 37.2382 81.0762 34.1741C81.8765 32.3293 81.3631 32.1133 82.0358 31.1696C83.9773 28.4459 89.6106 28.3423 93.5837 29.6303C94.9585 30.076 98.2703 27.6877 100.959 29.4179C104.126 31.4564 106.233 37.3323 105.748 38.409C105.454 39.0631 103.814 38.3967 100.404 38.9001C97.246 39.3662 101.413 41.5818 97.86 42.3371C93.658 43.2301 92.3922 42.4151 91.2277 43.6636C89.9968 44.9834 89.7692 47.6546 90.8924 49.2403C91.4498 50.0271 92.1685 50.3048 92.0785 50.8524C91.9141 51.8522 90.9685 51.3087 90.6584 52.3694C90.2977 53.603 93.2907 55.2205 93.0305 55.5936C92.9781 55.6688 92.754 55.7502 89.8314 54.6924C88.6644 54.27 88.2145 53.9053 88.0836 54.0402C87.8717 54.2587 86.8224 56.4491 88.0146 57.3808C89.87 58.8308 88.5841 59.4066 89.4299 60.542C90.3025 61.7132 88.766 60.8922 87.7795 61.3829Z" fill="#2F2E41"/>
<path d="M91.1993 140.636C93.5302 144.177 97.3649 145.918 99.7641 144.525C102.163 143.131 102.218 139.132 99.8861 135.59C98.9751 134.163 97.7136 132.962 96.207 132.086L86.1293 117.2L78.792 121.791L89.5058 135.978C89.6661 137.636 90.2468 139.233 91.1993 140.636Z" fill="#A0616A"/>
<path d="M77.899 68.2319C77.899 68.2319 60.8973 71.2896 62.3442 79.1035C63.7912 86.9174 72.9245 118.76 72.9245 118.76L80.4311 126.666L89.4746 120.551L81.8781 92.0134L77.899 68.2319Z" fill="#3A0751"/>
<path d="M159.09 141.9C161.412 145.447 165.242 147.197 167.645 145.809C170.048 144.421 170.113 140.422 167.791 136.874C166.884 135.445 165.626 134.241 164.121 133.362L154.084 118.452L146.734 123.025L157.41 137.238C157.565 138.896 158.142 140.495 159.09 141.9Z" fill="#FFB6B6"/>
<path d="M136.505 70.271L122.188 73.6429C122.188 73.6429 127.201 90.4205 128.375 96.4352C129.55 102.45 154.274 135.589 154.274 135.589L161.752 127.187L139.854 89.2848L136.505 70.271Z" fill="#F2C85B"/>
</g>
<defs>
<clipPath id="clip0_1004_28104">
<rect width="280" height="240" fill="white"/>
</clipPath>
</defs>
</svg>
