<svg width="45" height="45" viewBox="0 0 45 45" fill="none" xmlns="http://www.w3.org/2000/svg">
<mask id="mask0_733_4259" style="mask-type:alpha" maskUnits="userSpaceOnUse" x="0" y="0" width="45" height="45">
<rect width="45" height="45" fill="#BE79DD"/>
</mask>
<g mask="url(#mask0_733_4259)">
<path d="M3.75 31.875V5.625C3.75 5.09375 3.93 4.64812 4.29 4.28812C4.64875 3.92937 5.09375 3.75 5.625 3.75H30C30.5312 3.75 30.9762 3.92937 31.335 4.28812C31.695 4.64812 31.875 5.09375 31.875 5.625V22.5C31.875 23.0312 31.695 23.4762 31.335 23.835C30.9762 24.195 30.5312 24.375 30 24.375H11.25L3.75 31.875ZM13.125 33.75C12.5938 33.75 12.1481 33.57 11.7881 33.21C11.4294 32.8512 11.25 32.4062 11.25 31.875V28.125H35.625V11.25H39.375C39.9062 11.25 40.3512 11.4294 40.71 11.7881C41.07 12.1481 41.25 12.5938 41.25 13.125V41.25L33.75 33.75H13.125ZM28.125 7.5H7.5V22.8281L9.70313 20.625H28.125V7.5Z" fill="white"/>
</g>
</svg>
