<svg width="45" height="45" viewBox="0 0 45 45" fill="none" xmlns="http://www.w3.org/2000/svg">
<mask id="mask0_733_4262" style="mask-type:alpha" maskUnits="userSpaceOnUse" x="0" y="0" width="45" height="45">
<rect width="45" height="45" fill="#D9D9D9"/>
</mask>
<g mask="url(#mask0_733_4262)">
<path d="M1.875 37.5V32.25C1.875 31.1875 2.14875 30.2106 2.69625 29.3194C3.2425 28.4294 3.96875 27.75 4.875 27.2812C6.8125 26.3125 8.78125 25.5856 10.7812 25.1006C12.7812 24.6169 14.8125 24.375 16.875 24.375C18.9375 24.375 20.9688 24.6169 22.9688 25.1006C24.9688 25.5856 26.9375 26.3125 28.875 27.2812C29.7812 27.75 30.5075 28.4294 31.0538 29.3194C31.6012 30.2106 31.875 31.1875 31.875 32.25V37.5H1.875ZM35.625 37.5V31.875C35.625 30.5 35.2425 29.1794 34.4775 27.9131C33.7113 26.6481 32.625 25.5625 31.2188 24.6562C32.8125 24.8438 34.3125 25.1637 35.7188 25.6162C37.125 26.07 38.4375 26.625 39.6562 27.2812C40.7812 27.9062 41.6406 28.6012 42.2344 29.3662C42.8281 30.1325 43.125 30.9688 43.125 31.875V37.5H35.625ZM16.875 22.5C14.8125 22.5 13.0469 21.7656 11.5781 20.2969C10.1094 18.8281 9.375 17.0625 9.375 15C9.375 12.9375 10.1094 11.1719 11.5781 9.70313C13.0469 8.23438 14.8125 7.5 16.875 7.5C18.9375 7.5 20.7031 8.23438 22.1719 9.70313C23.6406 11.1719 24.375 12.9375 24.375 15C24.375 17.0625 23.6406 18.8281 22.1719 20.2969C20.7031 21.7656 18.9375 22.5 16.875 22.5ZM35.625 15C35.625 17.0625 34.8906 18.8281 33.4219 20.2969C31.9531 21.7656 30.1875 22.5 28.125 22.5C27.7812 22.5 27.3438 22.4612 26.8125 22.3837C26.2812 22.305 25.8438 22.2188 25.5 22.125C26.3438 21.125 26.9919 20.0156 27.4444 18.7969C27.8981 17.5781 28.125 16.3125 28.125 15C28.125 13.6875 27.8981 12.4219 27.4444 11.2031C26.9919 9.98437 26.3438 8.875 25.5 7.875C25.9375 7.71875 26.375 7.61688 26.8125 7.56938C27.25 7.52313 27.6875 7.5 28.125 7.5C30.1875 7.5 31.9531 8.23438 33.4219 9.70313C34.8906 11.1719 35.625 12.9375 35.625 15ZM5.625 33.75H28.125V32.25C28.125 31.9063 28.0394 31.5938 27.8681 31.3125C27.6956 31.0313 27.4688 30.8125 27.1875 30.6562C25.5 29.8125 23.7969 29.1794 22.0781 28.7569C20.3594 28.3356 18.625 28.125 16.875 28.125C15.125 28.125 13.3906 28.3356 11.6719 28.7569C9.95312 29.1794 8.25 29.8125 6.5625 30.6562C6.28125 30.8125 6.055 31.0313 5.88375 31.3125C5.71125 31.5938 5.625 31.9063 5.625 32.25V33.75ZM16.875 18.75C17.9062 18.75 18.7894 18.3825 19.5244 17.6475C20.2581 16.9137 20.625 16.0312 20.625 15C20.625 13.9688 20.2581 13.0862 19.5244 12.3525C18.7894 11.6175 17.9062 11.25 16.875 11.25C15.8438 11.25 14.9612 11.6175 14.2275 12.3525C13.4925 13.0862 13.125 13.9688 13.125 15C13.125 16.0312 13.4925 16.9137 14.2275 17.6475C14.9612 18.3825 15.8438 18.75 16.875 18.75Z" fill="white"/>
</g>
</svg>
