<svg width="43" height="31" viewBox="0 0 43 31" fill="none" xmlns="http://www.w3.org/2000/svg">
<path d="M0.875 30.5V25.25C0.875 24.1875 1.14875 23.2106 1.69625 22.3194C2.2425 21.4294 2.96875 20.75 3.875 20.2812C5.8125 19.3125 7.78125 18.5856 9.78125 18.1006C11.7812 17.6169 13.8125 17.375 15.875 17.375C17.9375 17.375 19.9688 17.6169 21.9688 18.1006C23.9688 18.5856 25.9375 19.3125 27.875 20.2812C28.7812 20.75 29.5075 21.4294 30.0538 22.3194C30.6013 23.2106 30.875 24.1875 30.875 25.25V30.5H0.875ZM34.625 30.5V24.875C34.625 23.5 34.2425 22.1794 33.4775 20.9131C32.7113 19.6481 31.625 18.5625 30.2188 17.6562C31.8125 17.8438 33.3125 18.1637 34.7188 18.6162C36.125 19.07 37.4375 19.625 38.6562 20.2812C39.7812 20.9062 40.6406 21.6012 41.2344 22.3662C41.8281 23.1325 42.125 23.9688 42.125 24.875V30.5H34.625ZM15.875 15.5C13.8125 15.5 12.0469 14.7656 10.5781 13.2969C9.10938 11.8281 8.375 10.0625 8.375 8C8.375 5.9375 9.10938 4.17188 10.5781 2.70313C12.0469 1.23438 13.8125 0.5 15.875 0.5C17.9375 0.5 19.7031 1.23438 21.1719 2.70313C22.6406 4.17188 23.375 5.9375 23.375 8C23.375 10.0625 22.6406 11.8281 21.1719 13.2969C19.7031 14.7656 17.9375 15.5 15.875 15.5ZM34.625 8C34.625 10.0625 33.8906 11.8281 32.4219 13.2969C30.9531 14.7656 29.1875 15.5 27.125 15.5C26.7812 15.5 26.3438 15.4612 25.8125 15.3837C25.2812 15.305 24.8438 15.2188 24.5 15.125C25.3438 14.125 25.9919 13.0156 26.4444 11.7969C26.8981 10.5781 27.125 9.3125 27.125 8C27.125 6.6875 26.8981 5.42187 26.4444 4.20312C25.9919 2.98437 25.3438 1.875 24.5 0.875C24.9375 0.71875 25.375 0.616875 25.8125 0.569375C26.25 0.523125 26.6875 0.5 27.125 0.5C29.1875 0.5 30.9531 1.23438 32.4219 2.70313C33.8906 4.17188 34.625 5.9375 34.625 8Z" fill="white"/>
</svg>
