<svg width="45" height="45" viewBox="0 0 45 45" fill="none" xmlns="http://www.w3.org/2000/svg">
<mask id="mask0_733_4256" style="mask-type:alpha" maskUnits="userSpaceOnUse" x="0" y="0" width="45" height="45">
<rect width="45" height="45" fill="#D9D9D9"/>
</mask>
<g mask="url(#mask0_733_4256)">
<path d="M23.077 23.3653C24.1083 23.3653 24.9914 22.9978 25.7264 22.2628C26.4602 21.529 26.827 20.6465 26.827 19.6153C26.827 18.584 26.4602 17.7009 25.7264 16.9659C24.9914 16.2322 24.1083 15.8653 23.077 15.8653C22.0458 15.8653 21.1633 16.2322 20.4295 16.9659C19.6945 17.7009 19.327 18.584 19.327 19.6153C19.327 20.6465 19.6945 21.529 20.4295 22.2628C21.1633 22.9978 22.0458 23.3653 23.077 23.3653ZM23.077 37.1465C26.8895 33.6465 29.7177 30.4665 31.5614 27.6065C33.4052 24.7478 34.327 22.209 34.327 19.9903C34.327 16.584 33.2408 13.7947 31.0683 11.6222C28.897 9.45092 26.2333 8.3653 23.077 8.3653C19.9208 8.3653 17.2564 9.45092 15.0839 11.6222C12.9127 13.7947 11.827 16.584 11.827 19.9903C11.827 22.209 12.7489 24.7478 14.5927 27.6065C16.4364 30.4665 19.2645 33.6465 23.077 37.1465ZM23.077 42.1153C18.0458 37.834 14.2883 33.8572 11.8045 30.1847C9.31954 26.5134 8.07704 23.1153 8.07704 19.9903C8.07704 15.3028 9.58517 11.5684 12.6014 8.78717C15.6164 6.00592 19.1083 4.6153 23.077 4.6153C27.0458 4.6153 30.5377 6.00592 33.5527 8.78717C36.5689 11.5684 38.077 15.3028 38.077 19.9903C38.077 23.1153 36.8352 26.5134 34.3514 30.1847C31.8664 33.8572 28.1083 37.834 23.077 42.1153Z" fill="white"/>
</g>
</svg>
