<svg width="280" height="240" viewBox="0 0 280 240" fill="none" xmlns="http://www.w3.org/2000/svg">
<g clip-path="url(#clip0_739_4697)">
<path d="M23.6801 197.709C26.0684 203.494 28.9779 208.736 32.323 213.281C32.3994 213.387 32.4779 213.489 32.5564 213.594L39.6984 207.107C39.6455 206.998 39.5872 206.875 39.5247 206.74C35.7957 198.804 18.9544 146.01 18.8515 134.319C18.8385 135.287 12.7906 171.622 23.6801 197.709Z" fill="#E6E6E6"/>
<path d="M30.9451 214.532C31.0554 214.608 31.1681 214.682 31.2815 214.752L36.6396 209.886C36.5559 209.812 36.4583 209.725 36.3464 209.627C34.5122 207.989 29.0545 203.068 23.6808 197.708C17.9069 191.948 12.2269 185.685 11.2412 182.446C11.4463 183.191 17.8036 205.841 30.9451 214.532Z" fill="#E6E6E6"/>
<path d="M257.293 218.992C257.173 225.83 256.424 232.609 255.067 239.128C255.037 239.279 255.003 239.428 254.971 239.579H246.663C246.672 239.444 246.681 239.292 246.69 239.128C247.244 229.394 244.079 170.857 240.261 160.726C240.595 161.548 257.937 188.063 257.293 218.992Z" fill="#E6E6E6"/>
<path d="M256.669 239.127C256.599 239.279 256.527 239.43 256.453 239.579H250.221C250.268 239.45 250.323 239.299 250.386 239.127C251.416 236.287 254.463 227.795 257.292 218.992C260.33 209.531 263.121 199.712 262.886 196.158C262.958 196.959 265.062 221.394 256.669 239.127Z" fill="#E6E6E6"/>
<path d="M134.804 239.226H38.7323C36.4552 239.222 34.2721 237.838 32.662 235.376C31.0518 232.915 30.1461 229.578 30.1436 226.098V13.1285C30.1461 9.64781 31.0518 6.31081 32.662 3.84959C34.2721 1.38837 36.4552 0.0039291 38.7323 0H134.804C137.081 0.00392909 139.265 1.38836 140.875 3.84958C142.485 6.3108 143.391 9.6478 143.393 13.1285V226.098C143.391 229.578 142.485 232.915 140.875 235.376C139.265 237.838 137.081 239.222 134.804 239.226Z" fill="#3F3D56"/>
<path d="M134.974 230.85H38.5636C37.8617 230.849 37.1887 230.422 36.6924 229.663C36.196 228.905 35.9168 227.876 35.916 226.803V12.4235C35.9168 11.3505 36.196 10.3219 36.6924 9.56316C37.1887 8.80446 37.8617 8.37769 38.5636 8.37646H134.974C135.676 8.37769 136.349 8.80446 136.845 9.56316C137.341 10.3219 137.621 11.3505 137.621 12.4235V226.803C137.621 227.876 137.341 228.905 136.845 229.663C136.349 230.422 135.676 230.849 134.974 230.85Z" fill="white"/>
<path d="M86.4025 5.13748C86.806 5.13748 87.1332 4.63746 87.1332 4.02064C87.1332 3.40383 86.806 2.90381 86.4025 2.90381C85.999 2.90381 85.6719 3.40383 85.6719 4.02064C85.6719 4.63746 85.999 5.13748 86.4025 5.13748Z" fill="white"/>
<path d="M279.642 240H0.358222C0.263215 240 0.172101 239.942 0.104921 239.84C0.0377406 239.737 0 239.598 0 239.452C0 239.307 0.0377406 239.168 0.104921 239.065C0.172101 238.962 0.263215 238.905 0.358222 238.905H279.642C279.737 238.905 279.828 238.962 279.895 239.065C279.962 239.168 280 239.307 280 239.452C280 239.598 279.962 239.737 279.895 239.84C279.828 239.942 279.737 240 279.642 240Z" fill="#CACACA"/>
<path d="M86.767 177.673C91.9179 177.673 96.0936 171.29 96.0936 163.416C96.0936 155.543 91.9179 149.16 86.767 149.16C81.6161 149.16 77.4404 155.543 77.4404 163.416C77.4404 171.29 81.6161 177.673 86.767 177.673Z" fill="#D1193E"/>
<path d="M92.6069 136.054H80.9288L73.8785 83.3377C73.6974 80.585 73.8956 77.8048 74.4604 75.1764C75.0252 72.5479 75.9441 70.1295 77.1578 68.0771C78.3715 66.0247 79.8531 64.3839 81.507 63.2603C83.161 62.1367 84.9506 61.5554 86.7605 61.5537C88.5705 61.5521 90.3605 62.1302 92.0154 63.2508C93.6702 64.3714 95.153 66.0095 96.3683 68.0597C97.5836 70.1099 98.5043 72.5266 99.0712 75.1541C99.638 77.7815 99.8384 80.5613 99.6594 83.3143L92.6069 136.054Z" fill="#D1193E"/>
<path d="M132.653 65.1956H175.337C177.397 65.1956 179.395 66.2668 181.004 68.233C182.613 70.1993 183.736 72.9437 184.189 76.015L205.756 222.242C205.991 223.837 205.995 225.491 205.768 227.089C205.541 228.686 205.088 230.189 204.44 231.49C203.793 232.792 202.967 233.862 202.021 234.624C201.075 235.386 200.031 235.823 198.963 235.903L155.084 239.208C152.734 239.385 150.423 238.249 148.581 236.013C146.739 233.776 145.492 230.591 145.073 227.053L132.839 123.669L130.525 104.113L127.11 75.2549C126.963 74.0188 126.997 72.7487 127.209 71.535C127.421 70.3212 127.805 69.1939 128.334 68.2332C128.864 67.2725 129.525 66.5022 130.272 65.9771C131.018 65.4521 131.832 65.1852 132.653 65.1956Z" fill="#3F3D56"/>
<path d="M169.717 68.3477H174.7C176.131 68.3477 177.518 69.0957 178.633 70.4676C179.747 71.8394 180.521 73.7526 180.826 75.8895L201.528 220.923C201.647 221.758 201.647 222.623 201.528 223.458C201.408 224.293 201.172 225.079 200.836 225.761C200.5 226.444 200.071 227.008 199.579 227.414C199.087 227.821 198.544 228.06 197.986 228.116L154.249 232.498C153.015 232.621 151.794 232.046 150.82 230.882C149.846 229.718 149.186 228.046 148.967 226.186L131.302 76.2791C131.188 75.3088 131.214 74.312 131.379 73.3591C131.545 72.4061 131.845 71.5201 132.258 70.7637C132.672 70.0074 133.189 69.399 133.774 68.9815C134.358 68.564 134.995 68.3477 135.64 68.3477H140.367C140.824 68.3477 141.269 68.5782 141.632 69.0036C141.995 69.4289 142.256 70.0254 142.375 70.7006C142.48 71.2967 142.711 71.8233 143.031 72.1988C143.352 72.5743 143.744 72.7779 144.148 72.7779H166.587C167.378 72.7779 168.14 72.3216 168.72 71.5002C169.301 70.6788 169.657 69.553 169.717 68.3477Z" fill="white"/>
<path d="M191.792 114.838C191.932 114.976 192.065 115.131 192.188 115.301L206.646 109.667L207.633 104.336L213.091 105.56L211.945 115.257C211.853 116.041 211.596 116.757 211.215 117.299C210.833 117.841 210.347 118.179 209.829 118.262L192.947 120.98C192.672 121.865 192.227 122.602 191.672 123.091C191.116 123.581 190.476 123.8 189.837 123.72C189.198 123.64 188.59 123.264 188.093 122.643C187.597 122.022 187.237 121.185 187.059 120.242C186.882 119.3 186.897 118.298 187.101 117.369C187.306 116.44 187.691 115.628 188.205 115.041C188.718 114.455 189.337 114.121 189.978 114.085C190.619 114.048 191.252 114.311 191.792 114.838Z" fill="#FFB6B6"/>
<path d="M181.474 134.834C186.625 134.834 190.801 128.452 190.801 120.578C190.801 112.705 186.625 106.322 181.474 106.322C176.323 106.322 172.147 112.705 172.147 120.578C172.147 128.452 176.323 134.834 181.474 134.834Z" fill="#3A0751"/>
<path d="M187.314 93.215H175.636L168.586 40.4988C168.404 37.7461 168.603 34.9659 169.167 32.3375C169.732 29.709 170.651 27.2907 171.865 25.2383C173.079 23.1859 174.56 21.545 176.214 20.4214C177.868 19.2978 179.658 18.7165 181.468 18.7148C183.277 18.7132 185.068 19.2913 186.722 20.4119C188.377 21.5325 189.86 23.1707 191.075 25.2209C192.291 27.2711 193.211 29.6878 193.778 32.3152C194.345 34.9426 194.545 37.7224 194.366 40.4755L187.314 93.215Z" fill="#3A0751"/>
<path d="M214.067 110.399L210.342 115.311L205.131 122.177L202.83 104.177L202.589 102.305L202.399 100.82L207.679 86.7612L212.081 87.1475L212.382 87.1751L212.388 87.2763L212.457 88.219L213.36 100.627L213.381 100.926L214.067 110.399Z" fill="#F2C85B"/>
<path d="M189.722 233.497L186.033 233.497L184.278 211.75L189.722 211.75L189.722 233.497Z" fill="#FFB6B6"/>
<path d="M190.663 238.962L178.77 238.962V238.732C178.77 236.855 179.257 235.055 180.125 233.728C180.994 232.401 182.171 231.656 183.399 231.656H183.399L190.663 231.656L190.663 238.962Z" fill="#2F2E41"/>
<path d="M228.231 233.957L224.543 233.957L222.788 212.21L228.232 212.21L228.231 233.957Z" fill="#FFB6B6"/>
<path d="M229.172 239.422L217.279 239.421V239.192C217.279 237.315 217.767 235.515 218.635 234.188C219.503 232.861 220.681 232.116 221.908 232.116H221.909L229.173 232.116L229.172 239.422Z" fill="#2F2E41"/>
<path d="M231.18 224.381L221.251 226.68L206.807 151.959L191.467 227.14L180.335 224.84L194.776 137.463V130.565L196.732 120.218L196.527 117.417L195.104 97.831L194.487 89.337L194.447 88.7883C194.414 88.3279 194.494 87.8648 194.671 87.4893C194.849 87.1138 195.111 86.8528 195.408 86.7571L200.041 85.2671H207.614L212.081 87.148L212.388 87.2768L212.527 87.3365L212.457 88.2195L211.41 101.639L211.353 102.375L210.342 115.311L210.12 118.148C218.845 127.806 219.145 137.463 219.145 137.463L231.18 224.381Z" fill="#F86E51"/>
<path d="M202.912 79.4486C206.993 79.4486 210.301 74.3916 210.301 68.1535C210.301 61.9154 206.993 56.8584 202.912 56.8584C198.831 56.8584 195.522 61.9154 195.522 68.1535C195.522 74.3916 198.831 79.4486 202.912 79.4486Z" fill="#FFB6B6"/>
<path d="M210.673 115.553L196.056 118.475L196.329 121.667L210.946 118.745L210.673 115.553Z" fill="#D1193E"/>
<path d="M176.449 119.437C176.588 119.575 176.721 119.73 176.845 119.9L191.303 114.266L192.289 108.935L197.748 110.158L196.602 119.856C196.509 120.64 196.253 121.356 195.871 121.898C195.489 122.44 195.003 122.778 194.485 122.861L177.604 125.578C177.328 126.464 176.883 127.2 176.328 127.69C175.772 128.179 175.132 128.399 174.493 128.319C173.854 128.239 173.246 127.863 172.75 127.242C172.254 126.621 171.893 125.783 171.716 124.841C171.539 123.899 171.553 122.897 171.758 121.968C171.962 121.038 172.347 120.227 172.861 119.64C173.375 119.053 173.993 118.72 174.634 118.683C175.275 118.647 175.908 118.91 176.449 119.437Z" fill="#FFB6B6"/>
<path d="M198.688 89.6358L196.13 86.6466C195.439 86.2457 194.491 87.3847 194.325 88.4861L190.715 111.02L198.236 119.298L199.289 116.769L198.688 89.6358Z" fill="#F2C85B"/>
<g opacity="0.2">
<path d="M213.36 100.627C212.721 101.014 212.071 101.352 211.41 101.639C211.2 101.735 210.983 101.827 210.769 101.915C209.361 102.512 207.914 102.87 206.455 102.982C205.827 103.022 205.198 102.996 204.572 102.903C203.9 102.801 203.236 102.601 202.589 102.306C202.568 102.296 202.544 102.287 202.523 102.278C201.178 101.694 199.944 100.623 198.928 99.1554C198.7 98.8173 198.488 98.4562 198.293 98.0747C197.731 97.023 197.319 95.8037 197.083 94.4948C196.846 93.1859 196.791 91.8162 196.921 90.4729C196.946 90.2295 196.98 89.9884 197.023 89.7509C197.137 89.1037 197.287 88.4728 197.471 87.8654C197.553 87.5803 197.643 87.2997 197.739 87.0238L201.139 85.2671H207.613L212.081 87.148L212.382 87.1756L212.388 87.2768L212.526 87.3365L212.457 88.2195L213.36 100.627Z" fill="black"/>
</g>
<path d="M197.25 58.8022C195.868 58.5433 194.352 58.7264 193.274 60.0749C192.197 61.4233 191.85 64.2266 192.869 65.6754C193.772 66.9581 195.184 66.6564 196.393 67.0212C197.435 67.3781 198.368 68.2589 199.044 69.5226C199.719 70.7863 200.098 72.3598 200.119 73.9914C200.101 78.6702 197.163 82.2135 196.636 86.8224C196.276 89.9679 197.143 93.2783 198.644 95.5002C200.144 97.7221 202.207 98.9229 204.285 99.2481C206.363 99.5734 208.465 99.0766 210.485 98.2605C212.513 97.4409 214.509 96.2781 216.211 94.403C217.913 92.5278 219.308 89.8844 219.854 86.7884C220.401 83.6924 220.008 80.1427 218.6 77.7656C216.988 75.0436 214.306 74.1075 212.911 71.1178C211.348 67.7663 211.926 62.9934 210.661 59.3599C209.816 56.934 208.217 55.2793 206.512 54.4077C204.807 53.536 202.986 53.364 201.189 53.2795C200.244 53.2352 199.271 53.2204 198.391 53.7468C197.511 54.2732 196.737 55.4728 196.692 56.9156C196.646 58.3584 197.25 58.8022 197.25 58.8022Z" fill="#2F2E41"/>
</g>
<defs>
<clipPath id="clip0_739_4697">
<rect width="280" height="240" fill="white"/>
</clipPath>
</defs>
</svg>
