<svg width="280" height="240" viewBox="0 0 280 240" fill="none" xmlns="http://www.w3.org/2000/svg">
<g clip-path="url(#clip0_572_5646)">
<path d="M210.599 9.2726C208.484 10.8028 205.069 4.75037 204.296 7.71086C203.522 10.6713 205.396 22.6167 206.363 25.4816C206.843 26.9057 207.523 28.2081 207.994 29.6371C208.466 31.0661 208.718 32.7091 208.302 34.1661C207.576 36.7015 205.183 37.7329 203.996 39.9614C202.613 42.5569 203.172 46.0527 203.818 49.0876C204.375 51.7035 204.969 54.3431 206.041 56.6781C207.113 59.0131 208.729 61.0462 210.749 61.8188C213.321 62.8024 216.07 61.6334 218.549 60.3137C220.932 59.0449 223.291 57.6065 225.318 55.5538C227.345 53.501 229.037 50.7763 229.745 47.5838C230.634 43.5793 229.892 39.1969 228.353 35.5335C226.813 31.8701 224.537 28.8182 222.2 25.9368C218.266 21.084 214.079 16.5705 209.676 12.4367L210.599 9.2726Z" fill="#2F2E41"/>
<path d="M242.058 214.748L240.061 238.742L239.97 239.839L217.376 239.726L217.256 238.625L214.864 216.639L242.058 214.748Z" fill="#FFB6B6"/>
<path d="M207.512 238.578C207.512 238.94 207.509 239.305 207.507 239.675L184.051 239.558L183.974 238.457L182.528 217.586L206.782 213.801C206.782 213.801 207.563 224.871 207.512 238.578Z" fill="#FFB6B6"/>
<path d="M204.901 51.7762C208.627 57.8176 215.196 59.5683 220.497 55.9723C228.065 50.8392 238.396 44.9562 240.222 49.6571C243.162 57.2257 243.162 64.5709 243.162 64.5709L246.102 152.78C246.102 152.78 247.572 188.396 229.198 185.252C210.823 182.108 182.159 195.353 182.159 195.353L185.087 156.276L192.905 141.543L196.072 99.2731L190.611 65.2674L197.226 61.4831C197.226 61.4831 197.961 54.8605 200.166 54.8605C202.371 54.8605 202.903 48.4987 204.842 51.6796C204.862 51.7114 204.881 51.7436 204.901 51.7762Z" fill="#3A0751"/>
<path d="M244.763 239.865L239.97 239.839L217.376 239.726L214.435 239.711L214.265 238.61L209.719 209.072L209.009 238.585L208.983 239.682L207.506 239.674L184.05 239.557L182.368 239.546L182.363 238.449L182.263 217.59L182.172 198.273L182.158 195.351L182.161 195.348L189.184 177.022L191.232 171.676L191.653 170.579L195.755 159.874L232.876 153.259L233.444 153.156L243.53 151.361L243.604 156.682L243.646 159.703L243.797 170.579L243.814 171.676L243.831 172.93L244.746 238.764L244.763 239.865Z" fill="#2F2E41"/>
<path d="M215.883 48.9702C224.36 48.9702 231.232 40.1242 231.232 29.2122C231.232 18.3001 224.36 9.4541 215.883 9.4541C207.405 9.4541 200.533 18.3001 200.533 29.2122C200.533 40.1242 207.405 48.9702 215.883 48.9702Z" fill="#FFB6B6"/>
<path d="M233.186 60.1559C229.604 66.7342 227.771 74.8621 228.062 82.8871C224 80.3543 221.259 75.0031 220.326 69.3188C219.393 63.6345 220.104 57.666 221.604 52.1862C221.619 52.1314 221.634 52.0766 221.649 52.0219C223.926 43.7968 221.81 34.604 216.312 29.491C212.603 26.0421 209.386 21.7153 206.917 16.7557C205.523 13.9557 204.339 10.4433 205.38 7.39994C206.339 4.59557 208.818 3.28484 211.099 2.40783C216.307 0.405213 221.841 -0.7343 227.187 0.532894C232.533 1.80009 237.679 5.7574 240.206 11.9527C242.733 18.1481 242.071 26.6032 237.97 31.1959C239.263 31.7342 240.178 33.499 240.068 35.243C239.959 36.9871 238.835 38.539 237.491 38.802C238.367 38.762 238.885 40.2485 238.572 41.3037C238.26 42.3589 237.453 43.0143 236.684 43.5574C235.588 44.3311 234.374 45.1401 234.369 47.1661C234.367 47.9784 234.592 48.7668 234.96 49.427C235.851 51.027 237.289 51.7475 238.674 52.424C235.745 53.5344 233.41 56.9042 232.885 60.7761L233.186 60.1559Z" fill="#2F2E41"/>
<path d="M167.734 52.5124C167.315 46.8556 169.243 41.992 172.04 41.6495C174.837 41.3069 177.443 45.6147 177.861 51.2737C178.052 53.5312 177.821 55.8149 177.186 57.9337L178.725 81.9309L169.962 82.6209L169.374 58.8906C168.44 56.9637 167.877 54.7766 167.734 52.5124Z" fill="#FFB6B6"/>
<path d="M215.481 63.8965C215.481 63.8965 201.163 53.0552 198.215 54.6814C195.268 56.3076 180.95 83.9529 180.95 83.9529L179.633 78.9078L169.58 80.1584C169.58 80.1584 163.684 115.393 176.739 112.14C189.793 108.888 211.27 78.5322 211.27 78.5322L215.481 63.8965Z" fill="#3A0751"/>
<path d="M82.6436 122.147C82.6436 122.147 90.7278 116.046 92.9048 121.703C95.0819 127.36 115.195 194.845 115.195 194.845L102.234 198.094L82.6436 122.147Z" fill="#F86E51"/>
<path d="M65.0116 81.8336L65.3927 82.532C63.972 83.5877 63.7625 86.2512 64.4287 88.1839C65.0949 90.1166 66.3844 91.5491 67.4998 93.1018C68.6151 94.6544 69.6321 96.5774 69.5286 98.6888C69.4125 101.063 67.9086 103.019 67.6991 105.383C67.3963 108.827 69.8869 111.847 69.7633 115.31C69.6699 117.954 68.0902 120.078 66.5232 121.793C65.2968 123.138 63.9619 124.49 63.1342 126.224C62.9071 126.702 62.7178 127.212 62.579 127.757C61.9608 130.219 62.5437 132.902 63.3285 135.283C64.1107 137.664 65.1075 139.99 65.3523 142.556C65.5945 145.122 64.8426 148.085 63.008 149.137C66.662 148.734 70.2276 147.094 73.2532 144.427C73.5257 144.187 73.7907 143.94 74.0531 143.687C78.343 139.529 81.356 133.523 84.2554 127.67C84.4952 127.189 84.7324 126.705 84.9721 126.224C85.6156 124.922 86.2616 123.622 86.9076 122.32C88.7497 118.597 90.6145 114.819 91.6189 110.603C92.5425 106.715 92.6989 102.606 93.0774 98.5685C93.2616 96.5904 93.5039 94.6187 93.5493 92.6275C93.6225 89.5644 93.2162 86.4883 92.3885 83.6137C91.5785 80.7877 90.3622 78.1534 88.7951 75.9121C87.1902 73.6156 85.227 71.7478 83.0669 70.4031C80.975 69.1005 78.6988 68.2917 76.3798 68.0676C75.6026 67.9929 74.8278 67.9799 74.0531 68.0254C70.9973 68.1878 67.9767 69.1817 65.0394 70.4031C62.8793 71.7478 60.9161 73.6156 59.3112 75.9121C57.7441 78.1534 56.5278 80.7877 55.7178 83.6137C58.5339 81.6777 61.88 81.0118 65.0116 81.8336Z" fill="#2F2E41"/>
<path d="M86.9118 117.369L72.4226 110.055L72.0557 117.369L59.3538 119.929L53.3877 154.67L58.7856 176.247L99.1282 177.71L97.7077 170.396C97.7077 170.396 104.242 160.887 100.265 145.528L99.8229 141.619C98.668 131.398 93.9001 122.443 86.9118 117.369Z" fill="#F86E51"/>
<path d="M78.8481 109.726C85.9558 109.726 91.7177 102.309 91.7177 93.1598C91.7177 84.0106 85.9558 76.5938 78.8481 76.5938C71.7404 76.5938 65.9785 84.0106 65.9785 93.1598C65.9785 102.309 71.7404 109.726 78.8481 109.726Z" fill="#A0616A"/>
<path d="M54.5572 92.6275C54.6027 94.6187 54.8449 96.5904 55.0291 98.5685C55.4076 102.606 55.5641 106.715 56.4877 110.603C57.492 114.819 59.3568 118.597 61.199 122.32C61.845 123.622 62.491 124.922 63.1344 126.224C63.3742 126.705 63.6114 127.189 63.8511 127.67C66.7505 133.523 69.7635 139.529 74.0534 143.687C74.3158 143.94 74.5808 144.187 74.8533 144.427C77.8789 147.094 81.4446 148.734 85.0985 149.137C83.264 148.085 82.512 145.122 82.7543 142.556C82.999 139.99 83.9958 137.664 84.7781 135.283C85.5628 132.902 86.1458 130.219 85.5275 127.757C85.3887 127.212 85.1995 126.702 84.9724 126.224C84.1447 124.49 82.8098 123.138 81.5834 121.793C80.0163 120.078 78.4366 117.954 78.3433 115.31C78.2196 111.847 76.5012 113.007 76.1983 109.564C75.9889 107.199 73.5386 103.168 73.4225 100.794C73.3191 98.6823 74.3259 93.576 75.4413 92.0234C76.5567 90.4707 75.5321 85.8355 76.1983 83.9028C76.8645 81.9701 84.1346 83.5877 82.7139 82.532L83.0949 81.8336C86.2265 81.0118 89.5726 81.6777 92.3888 83.6137C93.002 84.0327 93.5874 84.5102 94.1426 85.0494C95.4825 81.8986 93.8927 77.9 91.7302 75.6295C89.613 73.4012 87.0037 72.1149 84.4147 70.9813C83.968 70.7864 83.5189 70.5915 83.0672 70.4031C80.1299 69.1817 77.1093 68.1878 74.0534 68.0254C73.2787 67.9799 72.504 67.9929 71.7268 68.0676C69.4077 68.2917 67.1316 69.1005 65.0396 70.4031C62.8796 71.7478 60.9163 73.6156 59.3114 75.9121C57.7443 78.1534 56.528 80.7877 55.718 83.6137C54.8903 86.4884 54.4841 89.5644 54.5572 92.6275Z" fill="#2F2E41"/>
<path d="M279.205 225.057L261.267 176.54C259.929 172.919 257.051 170.579 253.934 170.579H27.3569C26.496 170.579 25.658 170.75 24.8681 171.08C22.8709 171.902 21.172 173.702 20.1663 176.174L0.938177 223.357C-0.391403 226.615 -0.303314 230.448 1.174 233.6C2.64848 236.756 5.23668 238.651 8.09762 238.665L182.369 239.547L184.051 239.558L207.506 239.675L208.984 239.682L214.436 239.711L217.376 239.726L239.971 239.839L244.763 239.865L271.841 240H271.875C274.671 240 277.231 238.186 278.731 235.147C280.237 232.094 280.413 228.319 279.205 225.057Z" fill="white"/>
<path d="M279.205 225.057L261.267 176.54C259.929 172.919 257.051 170.579 253.934 170.579H27.3569C26.496 170.579 25.658 170.75 24.8681 171.08C22.8709 171.902 21.172 173.702 20.1663 176.174L0.938177 223.357C-0.391403 226.615 -0.303314 230.448 1.174 233.6C2.64848 236.756 5.23668 238.651 8.09762 238.665L182.369 239.547L184.051 239.558L207.506 239.675L208.984 239.682L214.436 239.711L217.376 239.726L239.971 239.839L244.763 239.865L271.841 240H271.875C274.671 240 277.231 238.186 278.731 235.147C280.237 232.094 280.413 228.319 279.205 225.057ZM278.012 234.558C276.668 237.283 274.378 238.903 271.875 238.903H271.844L244.746 238.764L240.062 238.742L217.257 238.625L214.265 238.61L209.009 238.585L207.512 238.577L183.974 238.457L182.363 238.449L8.10039 237.568C5.54069 237.553 3.22237 235.86 1.90416 233.037C0.583046 230.214 0.50356 226.784 1.69393 223.865L20.922 176.686C21.6152 174.985 22.672 173.64 23.9363 172.773C24.9676 172.063 26.1381 171.676 27.3569 171.676H253.934C256.724 171.676 259.298 173.771 260.497 177.011L278.435 225.526C279.518 228.451 279.359 231.827 278.012 234.558Z" fill="#3F3D56"/>
<path d="M80.5196 205.686L123.419 185.572L101.969 174.467L59.2119 188.864L80.5196 205.686Z" fill="#F2F2F2"/>
<path d="M145.863 175.333L141.033 195.081L197.57 199.469L192.74 177.161L145.863 175.333Z" fill="#F2F2F2"/>
<path d="M79.2212 178.71C83.1962 179.218 86.2149 182.269 85.9636 185.526C85.7124 188.782 82.2866 191.009 78.3102 190.501C76.7196 190.326 75.1848 189.663 73.834 188.568L57.0127 186.145L58.0645 176.008L74.5357 179.473C76.0278 178.741 77.6344 178.479 79.2212 178.71Z" fill="#A0616A"/>
<path d="M62.3372 121.94L59.3542 119.929C59.3542 119.929 54.6665 120.112 51.5414 124.134C48.4162 128.157 23.1311 174.236 23.1311 174.236C23.1311 174.236 16.8808 186.67 32.5065 188.498C48.1321 190.327 65.4624 190.327 65.4624 190.327L66.8829 175.333L43.3024 172.041L59.815 143.882L62.3372 121.94Z" fill="#F86E51"/>
<path d="M228.688 171.302C225.315 174.526 221.289 174.899 219.696 172.136C218.102 169.373 219.545 164.52 222.919 161.296C224.253 159.984 225.812 159.103 227.465 158.726L241.888 145.299L246.639 154.146L231.915 166.443C231.156 168.371 230.05 170.038 228.688 171.302Z" fill="#FFB6B6"/>
<path d="M237.775 61.9561C237.775 61.9561 249.41 62.4291 251.615 72.836C253.82 83.2428 258.23 105.425 257.495 136.223C257.495 136.223 261.169 156.091 251.615 155.145L238.385 162.713L229.565 147.576L236.915 136.223L237.775 61.9561Z" fill="#3A0751"/>
</g>
<defs>
<clipPath id="clip0_572_5646">
<rect width="280" height="240" fill="white"/>
</clipPath>
</defs>
</svg>
