<svg width="280" height="240" viewBox="0 0 280 240" fill="none" xmlns="http://www.w3.org/2000/svg">
<g clip-path="url(#clip0_572_5520)">
<path d="M159.434 117.353C165.734 117.353 170.842 111.716 170.842 104.762C170.842 97.8081 165.734 92.1709 159.434 92.1709C153.133 92.1709 148.025 97.8081 148.025 104.762C148.025 111.716 153.133 117.353 159.434 117.353Z" fill="#E6E6E6"/>
<path d="M187.392 120.942L175.471 107.784C176.384 106.215 177.004 104.46 177.292 102.622C177.58 100.784 177.53 98.9016 177.147 97.0852C176.764 95.2688 176.054 93.5558 175.06 92.0477C174.065 90.5397 172.807 89.2672 171.359 88.3057C168.633 86.508 165.394 85.9061 162.285 86.619C159.175 87.3319 156.422 89.3076 154.569 92.155C152.865 94.7925 152.046 98.0029 152.254 101.234C152.462 104.466 153.684 107.516 155.709 109.861C157.734 112.207 160.436 113.7 163.35 114.085C166.264 114.469 169.209 113.722 171.678 111.97L183.6 125.127C184.103 125.682 184.785 125.993 185.496 125.993C186.207 125.993 186.889 125.681 187.391 125.126C187.894 124.571 188.177 123.819 188.177 123.034C188.177 122.25 187.895 121.497 187.392 120.942ZM171.233 107.293C169.756 108.923 167.812 109.938 165.733 110.164C163.654 110.39 161.568 109.813 159.831 108.532C158.094 107.251 156.814 105.345 156.207 103.139C155.601 100.932 155.706 98.5622 156.506 96.432C157.305 94.3018 158.749 92.5435 160.591 91.4566C162.434 90.3697 164.561 90.0215 166.61 90.4713C168.659 90.9211 170.503 92.1411 171.828 93.9234C173.153 95.7057 173.878 97.9401 173.878 100.246C173.879 101.555 173.646 102.851 173.193 104.061C172.739 105.27 172.073 106.368 171.233 107.293Z" fill="#FBA465"/>
<path d="M273.812 140.351C304.3 177.563 215.919 231.193 144.506 231.193C73.092 231.193 23.6849 189.64 15.1997 140.351C-5.3738 20.8412 190.491 -55.1183 144.506 49.5082C77.4765 202.013 249.801 111.044 273.812 140.351Z" fill="#E6E6E6"/>
<path d="M260.132 149.158C290.62 186.371 202.24 240 130.826 240C59.4123 240 10.0052 198.447 1.52005 149.158C-19.0535 29.6483 176.812 -46.3112 130.826 58.3153C63.7968 210.82 236.122 119.852 260.132 149.158Z" fill="#3A0751"/>
<path d="M42.6325 61.91C21.239 60.8703 4.65139 55.7771 4.86931 50.3146C4.99996 47.0396 11.0545 44.4062 21.4805 43.0897C21.5178 43.0847 21.5557 43.0879 21.5919 43.0991C21.628 43.1103 21.6619 43.1293 21.6914 43.155C21.7209 43.1807 21.7455 43.2126 21.7638 43.2489C21.7821 43.2851 21.7937 43.325 21.7979 43.3662C21.8022 43.4074 21.7991 43.4492 21.7886 43.489C21.7782 43.5289 21.7608 43.5661 21.7373 43.5985C21.7138 43.6309 21.6848 43.6578 21.6518 43.6777C21.6189 43.6977 21.5827 43.7102 21.5453 43.7147C11.724 44.9549 5.55235 47.4945 5.43873 50.3422C5.24167 55.282 22.2858 60.2915 42.6576 61.2815C63.0294 62.2715 80.4065 58.9347 80.6035 53.995C80.7176 51.1352 74.7336 47.998 64.9867 45.8079C64.9499 45.7998 64.9149 45.7837 64.8838 45.7606C64.8527 45.7376 64.826 45.7079 64.8053 45.6735C64.7845 45.639 64.7701 45.6003 64.763 45.5597C64.7558 45.5191 64.756 45.4773 64.7634 45.4367C64.7709 45.3962 64.7856 45.3577 64.8066 45.3234C64.8276 45.2891 64.8545 45.2597 64.8858 45.2369C64.9171 45.2141 64.9522 45.1984 64.989 45.1906C65.0258 45.1828 65.0637 45.1831 65.1004 45.1914C75.4459 47.5161 81.3041 50.7349 81.173 54.0226C80.955 59.4851 64.026 62.9496 42.6325 61.91Z" fill="#D1193E"/>
<path d="M23.6318 62.8247C25.4215 66.5771 28.0727 69.7449 31.32 72.0113C34.5674 74.2776 38.297 75.5631 42.1358 75.7389C45.9746 75.9148 49.788 74.9749 53.1943 73.0133C56.6007 71.0518 59.4805 68.1373 61.5458 64.5615C48.8885 64.7498 36.2314 64.17 23.6318 62.8247Z" fill="#D1193E"/>
<path d="M63.9128 57.9451C64.9899 54.3794 65.3003 50.5859 64.8193 46.8649C64.3384 43.144 63.0793 39.5976 61.1419 36.5065C59.2044 33.4155 56.6416 30.8645 53.6564 29.0556C50.6712 27.2467 47.3455 26.2295 43.9425 26.0844C40.5396 25.9394 37.1527 26.6705 34.05 28.22C30.9473 29.7694 28.2139 32.0946 26.0662 35.0116C23.9185 37.9285 22.4155 41.3572 21.6759 45.0261C20.9364 48.6951 20.9808 52.5037 21.8055 56.1504C35.7119 58.7559 49.8658 59.3592 63.9128 57.9451Z" fill="#D1193E"/>
<path d="M48.1157 41.7086C49.5323 41.7086 50.6806 40.4412 50.6806 38.8778C50.6806 37.3143 49.5323 36.0469 48.1157 36.0469C46.6991 36.0469 45.5508 37.3143 45.5508 38.8778C45.5508 40.4412 46.6991 41.7086 48.1157 41.7086Z" fill="white"/>
<path d="M34.9155 52.7146C37.2764 52.7146 39.1904 50.6022 39.1904 47.9965C39.1904 45.3907 37.2764 43.2783 34.9155 43.2783C32.5545 43.2783 30.6406 45.3907 30.6406 47.9965C30.6406 50.6022 32.5545 52.7146 34.9155 52.7146Z" fill="white"/>
<path d="M99.4348 48.0929C101.009 48.0929 102.285 46.6847 102.285 44.9476C102.285 43.2105 101.009 41.8022 99.4348 41.8022C97.8609 41.8022 96.585 43.2105 96.585 44.9476C96.585 46.6847 97.8609 48.0929 99.4348 48.0929Z" fill="#D1193E"/>
<path d="M35.0264 144.343C35.9708 144.343 36.7363 143.498 36.7363 142.456C36.7363 141.413 35.9708 140.568 35.0264 140.568C34.082 140.568 33.3164 141.413 33.3164 142.456C33.3164 143.498 34.082 144.343 35.0264 144.343Z" fill="#E6E6E6"/>
<path d="M154.723 209.138C155.667 209.138 156.433 208.293 156.433 207.251C156.433 206.209 155.667 205.364 154.723 205.364C153.778 205.364 153.013 206.209 153.013 207.251C153.013 208.293 153.778 209.138 154.723 209.138Z" fill="#E6E6E6"/>
<path d="M43.2915 107.856C43.7637 107.856 44.1465 107.434 44.1465 106.912C44.1465 106.391 43.7637 105.969 43.2915 105.969C42.8193 105.969 42.4365 106.391 42.4365 106.912C42.4365 107.434 42.8193 107.856 43.2915 107.856Z" fill="#E6E6E6"/>
<path d="M113.969 178.313C114.441 178.313 114.824 177.891 114.824 177.369C114.824 176.848 114.441 176.426 113.969 176.426C113.497 176.426 113.114 176.848 113.114 177.369C113.114 177.891 113.497 178.313 113.969 178.313Z" fill="#E6E6E6"/>
<path d="M242.5 169.191C242.973 169.191 243.355 168.769 243.355 168.248C243.355 167.727 242.973 167.304 242.5 167.304C242.028 167.304 241.646 167.727 241.646 168.248C241.646 168.769 242.028 169.191 242.5 169.191Z" fill="#E6E6E6"/>
<path d="M202.317 197.186C202.789 197.186 203.172 196.763 203.172 196.242C203.172 195.721 202.789 195.298 202.317 195.298C201.845 195.298 201.462 195.721 201.462 196.242C201.462 196.763 201.845 197.186 202.317 197.186Z" fill="#E6E6E6"/>
<path d="M160.422 163.215C160.895 163.215 161.277 162.793 161.277 162.272C161.277 161.751 160.895 161.328 160.422 161.328C159.95 161.328 159.567 161.751 159.567 162.272C159.567 162.793 159.95 163.215 160.422 163.215Z" fill="#E6E6E6"/>
<path d="M106.275 70.1109C106.747 70.1109 107.13 69.6884 107.13 69.1673C107.13 68.6461 106.747 68.2236 106.275 68.2236C105.803 68.2236 105.42 68.6461 105.42 69.1673C105.42 69.6884 105.803 70.1109 106.275 70.1109Z" fill="#E6E6E6"/>
<path d="M113.115 23.5587C113.587 23.5587 113.97 23.1362 113.97 22.615C113.97 22.0939 113.587 21.6714 113.115 21.6714C112.643 21.6714 112.26 22.0939 112.26 22.615C112.26 23.1362 112.643 23.5587 113.115 23.5587Z" fill="#E6E6E6"/>
<path d="M109.125 219.518C109.597 219.518 109.98 219.096 109.98 218.575C109.98 218.053 109.597 217.631 109.125 217.631C108.652 217.631 108.27 218.053 108.27 218.575C108.27 219.096 108.652 219.518 109.125 219.518Z" fill="#E6E6E6"/>
<path d="M66.9458 199.702C67.418 199.702 67.8008 199.28 67.8008 198.759C67.8008 198.237 67.418 197.815 66.9458 197.815C66.4736 197.815 66.0908 198.237 66.0908 198.759C66.0908 199.28 66.4736 199.702 66.9458 199.702Z" fill="#E6E6E6"/>
<path d="M200.607 165.732C201.079 165.732 201.462 165.309 201.462 164.788C201.462 164.267 201.079 163.844 200.607 163.844C200.135 163.844 199.752 164.267 199.752 164.788C199.752 165.309 200.135 165.732 200.607 165.732Z" fill="#E6E6E6"/>
<path d="M42.2856 73.5397C43.7022 73.5397 44.8505 72.2723 44.8505 70.7088C44.8505 69.1454 43.7022 67.8779 42.2856 67.8779C40.8691 67.8779 39.7207 69.1454 39.7207 70.7088C39.7207 72.2723 40.8691 73.5397 42.2856 73.5397Z" fill="white"/>
<path d="M100.29 114.147C100.29 122.602 88.4457 142.303 84.9844 147.88C84.88 148.049 84.7399 148.187 84.5762 148.282C84.4126 148.377 84.2303 148.427 84.0453 148.427C83.8602 148.427 83.678 148.377 83.5143 148.282C83.3507 148.187 83.2106 148.049 83.1061 147.88C79.6448 142.303 67.8008 122.602 67.8008 114.147C67.8008 111.792 68.221 109.461 69.0373 107.286C69.8537 105.11 71.0502 103.134 72.5587 101.469C74.0671 99.8042 75.8579 98.4835 77.8288 97.5825C79.7996 96.6815 81.912 96.2178 84.0453 96.2178C86.1785 96.2178 88.2909 96.6815 90.2618 97.5825C92.2326 98.4835 94.0234 99.8042 95.5318 101.469C97.0403 103.134 98.2368 105.11 99.0532 107.286C99.8696 109.461 100.29 111.792 100.29 114.147Z" fill="white"/>
<path d="M84.045 122.01C88.6095 122.01 92.3097 117.926 92.3097 112.888C92.3097 107.851 88.6095 103.767 84.045 103.767C79.4805 103.767 75.7803 107.851 75.7803 112.888C75.7803 117.926 79.4805 122.01 84.045 122.01Z" fill="#D1193E"/>
<path d="M83.9027 158.183C89.1754 158.183 93.4499 157.267 93.4499 156.138C93.4499 155.009 89.1754 154.094 83.9027 154.094C78.6299 154.094 74.3555 155.009 74.3555 156.138C74.3555 157.267 78.6299 158.183 83.9027 158.183Z" fill="white"/>
<path d="M232.795 99.9989C232.723 100.154 232.662 100.314 232.613 100.48L218.995 104.656L216.541 102.005L212.433 105.57L216.364 110.728C216.681 111.145 217.113 111.437 217.594 111.56C218.074 111.683 218.578 111.63 219.029 111.41L233.739 104.244C234.239 104.626 234.831 104.832 235.439 104.833C236.046 104.835 236.64 104.632 237.14 104.252C237.641 103.872 238.025 103.333 238.241 102.706C238.457 102.08 238.495 101.395 238.351 100.744C238.206 100.093 237.885 99.5059 237.43 99.061C236.976 98.6162 236.409 98.3345 235.806 98.2536C235.203 98.1727 234.592 98.2964 234.054 98.6081C233.516 98.9199 233.077 99.405 232.795 99.9989Z" fill="#FFB8B8"/>
<path d="M218.515 104.901L213.404 109.291C213.258 109.416 213.09 109.505 212.911 109.552C212.732 109.599 212.545 109.602 212.365 109.562C212.184 109.522 212.013 109.44 211.864 109.321C211.715 109.201 211.59 109.048 211.5 108.871L208.323 102.666C207.748 101.841 207.493 100.798 207.613 99.7657C207.734 98.7334 208.22 97.7961 208.966 97.1592C209.712 96.5224 210.656 96.238 211.592 96.3684C212.528 96.4988 213.378 97.0334 213.957 97.855L218.613 102.76C218.747 102.9 218.851 103.071 218.919 103.26C218.987 103.449 219.018 103.652 219.008 103.855C218.999 104.058 218.95 104.257 218.865 104.437C218.78 104.617 218.661 104.776 218.515 104.901Z" fill="#6C63FF"/>
<path d="M234.101 97.9222L239.285 100.496C239.502 100.604 239.671 100.802 239.756 101.048C239.84 101.294 239.833 101.566 239.735 101.806L239.121 103.311C239.194 103.347 239.25 103.414 239.278 103.495C239.306 103.577 239.304 103.668 239.271 103.748L239.026 104.35C238.993 104.43 238.933 104.492 238.859 104.523C238.785 104.554 238.703 104.551 238.63 104.516L238.385 105.118C238.457 105.154 238.513 105.22 238.542 105.302C238.57 105.384 238.567 105.475 238.535 105.554L238.29 106.157C238.257 106.236 238.197 106.298 238.123 106.329C238.049 106.361 237.966 106.358 237.894 106.322L234.58 114.452C234.482 114.692 234.302 114.878 234.08 114.972C233.857 115.065 233.61 115.057 233.393 114.949L228.21 112.375C227.993 112.267 227.823 112.069 227.739 111.823C227.655 111.577 227.662 111.305 227.76 111.065L232.915 98.4191C233.012 98.1795 233.192 97.9926 233.415 97.8994C233.637 97.8062 233.884 97.8144 234.101 97.9222Z" fill="#3F3D56"/>
<path d="M229.152 111.574L233.31 113.641C233.518 113.744 233.755 113.752 233.968 113.663C234.182 113.573 234.355 113.395 234.45 113.166L236.37 108.451L237.037 106.816L238.775 102.551C238.868 102.321 238.875 102.06 238.794 101.825C238.714 101.59 238.552 101.4 238.344 101.296L237.037 100.646L234.183 99.2291C233.975 99.1264 233.738 99.1192 233.525 99.2089C233.312 99.2987 233.14 99.4781 233.047 99.7078L231.365 103.832L229.451 108.527L228.721 110.32C228.628 110.549 228.621 110.81 228.701 111.045C228.782 111.28 228.944 111.47 229.152 111.574Z" fill="#F2F2F2"/>
<path d="M220.462 169.992L223.956 169.992L225.619 155.118L220.462 155.118L220.462 169.992Z" fill="#FFB8B8"/>
<path d="M219.571 168.733L226.452 168.733C227.028 168.733 227.598 168.858 228.13 169.101C228.662 169.344 229.146 169.701 229.553 170.15C229.96 170.6 230.283 171.133 230.504 171.72C230.724 172.308 230.837 172.937 230.837 173.573V173.73L219.571 173.73L219.571 168.733Z" fill="#2F2E41"/>
<path d="M229.583 169.048L233.077 169.048L234.739 154.174L229.582 154.174L229.583 169.048Z" fill="#FFB8B8"/>
<path d="M228.691 167.789L235.572 167.789C236.148 167.789 236.719 167.914 237.251 168.157C237.783 168.401 238.266 168.757 238.673 169.207C239.08 169.656 239.403 170.189 239.624 170.777C239.844 171.364 239.957 171.993 239.957 172.629V172.786L228.692 172.786L228.691 167.789Z" fill="#2F2E41"/>
<path d="M204.791 135.089C205.535 137.524 206.947 139.644 208.831 141.155C210.715 142.666 212.978 143.493 215.307 143.522L215.483 143.525C217.287 143.581 219.405 142.94 221.482 142.018C225.586 140.197 229.528 137.281 230.574 136.479L228.801 155.286L228.083 162.91C228.065 163.107 228.084 163.307 228.14 163.495C228.196 163.683 228.287 163.857 228.407 164.004C228.527 164.151 228.674 164.269 228.838 164.35C229.002 164.431 229.18 164.473 229.36 164.473H233.785C234.069 164.474 234.345 164.37 234.57 164.179C234.795 163.987 234.956 163.719 235.028 163.416L242.335 132.701C242.554 131.782 242.572 130.818 242.387 129.89C242.201 128.962 241.818 128.095 241.269 127.363C240.72 126.63 240.021 126.053 239.23 125.678C238.438 125.302 237.577 125.141 236.718 125.206L221.539 126.354L222.6 121.674L209.051 120.68L209.011 120.711C208.686 120.972 208.37 121.246 208.068 121.532C207.313 122.237 206.643 123.047 206.076 123.941C205.061 125.547 204.414 127.399 204.19 129.341C203.966 131.282 204.172 133.254 204.791 135.089Z" fill="#2F2E41"/>
<path d="M204.791 135.089C205.535 137.524 206.947 139.644 208.831 141.155C210.715 142.666 212.978 143.493 215.307 143.522C217.534 142.278 219.682 140.871 221.739 139.31L221.482 142.018L219.248 165.741C219.23 165.938 219.25 166.137 219.305 166.326C219.361 166.514 219.452 166.688 219.572 166.835C219.693 166.982 219.84 167.1 220.004 167.181C220.168 167.262 220.345 167.304 220.525 167.304H224.951C225.235 167.304 225.51 167.201 225.735 167.009C225.96 166.818 226.121 166.55 226.193 166.247L228.801 155.286L233.5 135.532C233.72 134.613 233.737 133.649 233.552 132.721C233.367 131.792 232.984 130.926 232.435 130.194C231.886 129.461 231.187 128.883 230.395 128.508C229.604 128.133 228.743 127.972 227.883 128.037L212.705 129.185L213.765 124.504L206.076 123.941C205.061 125.546 204.414 127.399 204.19 129.341C203.966 131.282 204.172 133.254 204.791 135.089Z" fill="#2F2E41"/>
<path d="M208.049 122.617L207.947 122.604L205.583 109.775C205.562 109.664 203.63 98.5986 209.555 92.8138L209.658 92.0221C209.684 91.8195 209.75 91.6256 209.851 91.4538C209.952 91.282 210.085 91.1364 210.242 91.0271C210.399 90.9177 210.575 90.8472 210.759 90.8203C210.943 90.7935 211.13 90.811 211.307 90.8716L216.888 92.7823C217.204 92.8898 217.47 93.128 217.631 93.447C217.791 93.7661 217.833 94.1413 217.749 94.4941L217.206 96.7719C217.959 97.747 226.815 109.515 223.73 118.581L222.348 124.542L208.049 122.617Z" fill="#EE3E38"/>
<path d="M231.223 112.605C231.09 112.698 230.963 112.802 230.845 112.917L217.194 108.872L216.302 105.213L211.122 105.978L212.131 112.625C212.213 113.162 212.45 113.656 212.807 114.031C213.165 114.407 213.623 114.644 214.113 114.708L230.081 116.79C230.335 117.399 230.751 117.909 231.273 118.251C231.796 118.593 232.4 118.752 233.006 118.705C233.612 118.659 234.191 118.41 234.666 117.992C235.141 117.574 235.489 117.006 235.664 116.364C235.839 115.722 235.833 115.036 235.647 114.398C235.46 113.76 235.102 113.2 234.62 112.792C234.138 112.383 233.555 112.147 232.948 112.114C232.341 112.081 231.74 112.252 231.223 112.605Z" fill="#FFB8B8"/>
<path d="M216.669 108.814L210.245 109.727C210.062 109.753 209.877 109.735 209.701 109.675C209.525 109.614 209.363 109.513 209.225 109.377C209.088 109.241 208.979 109.074 208.905 108.888C208.832 108.701 208.796 108.5 208.799 108.296L208.922 101.17C208.806 100.138 209.067 99.0964 209.646 98.2752C210.226 97.4541 211.076 96.92 212.012 96.79C212.947 96.6601 213.892 96.945 214.637 97.5821C215.383 98.2193 215.869 99.1567 215.989 100.189L217.74 107.025C217.79 107.221 217.801 107.426 217.773 107.627C217.744 107.828 217.677 108.02 217.575 108.19C217.474 108.36 217.34 108.503 217.184 108.611C217.028 108.718 216.852 108.788 216.669 108.814Z" fill="#EE3E38"/>
<path d="M214.861 89.1301C218.727 89.1301 221.861 85.6713 221.861 81.4047C221.861 77.138 218.727 73.6792 214.861 73.6792C210.995 73.6792 207.861 77.138 207.861 81.4047C207.861 85.6713 210.995 89.1301 214.861 89.1301Z" fill="#FFB8B8"/>
<path d="M214.492 82.05L213.616 80.2887C211.956 87.7534 214.888 93.9313 214.888 93.9313L203.507 88.0805L203.616 86.0046L202.49 87.415L200.872 86.4309L200.658 85.0844L199.437 85.4184L203.895 76.4893C208.222 67.9926 214.512 71.2365 214.512 71.2365C224.52 70.7115 223.298 81.6087 223.298 81.6087L214.492 82.05Z" fill="#2F2E41"/>
<path d="M134.812 139.621C136.426 138.479 134.463 131.922 130.428 124.975C126.394 118.029 121.814 113.323 120.2 114.465C118.587 115.607 120.549 122.164 124.584 129.11C128.619 136.057 133.198 140.763 134.812 139.621Z" fill="#F2C85B"/>
</g>
<defs>
<clipPath id="clip0_572_5520">
<rect width="280" height="240" fill="white"/>
</clipPath>
</defs>
</svg>
