<svg width="313" height="305" viewBox="0 0 313 305" fill="none" xmlns="http://www.w3.org/2000/svg">
<g filter="url(#filter0_d_1004_28381)">
<path d="M160.312 239.55C158.637 243.003 160.939 247.706 164.417 247.894C237.828 251.859 270.765 227.146 306.63 146.538C308.124 143.181 305.995 138.752 302.683 138.377C234.759 130.692 201.75 154.148 160.312 239.55Z" fill="#ED3F38" stroke="#ED3F38" stroke-width="2"/>
<path d="M152.688 239.55C154.363 243.003 152.061 247.706 148.583 247.894C75.1717 251.859 42.2353 227.146 6.37017 146.538C4.87615 143.181 7.00469 138.752 10.3172 138.377C78.2407 130.692 111.25 154.148 152.688 239.55Z" fill="#ED3F38" stroke="#ED3F38" stroke-width="2"/>
<path d="M152.138 247.866C152.196 251.869 147.745 254.294 144.46 252.007C71.7948 201.429 51.2142 152.466 52.7982 45.5149C52.8546 41.7033 57.0052 39.3723 60.2446 41.3819C129.249 84.1892 150.47 131.981 152.138 247.866Z" fill="#F86E51" stroke="#F86E51" stroke-width="2"/>
<path d="M158.415 248.025C158.357 251.995 162.739 254.433 166.033 252.216C241.326 201.542 262.618 152.571 260.96 45.3765C260.901 41.597 256.813 39.2605 253.571 41.2044C182.073 84.0767 160.121 131.864 158.415 248.025Z" fill="#F86E51" stroke="#F86E51" stroke-width="2"/>
<path d="M148.112 15.1553C151.808 8.38341 161.458 8.48362 165.029 15.3217C207.999 97.5863 207.947 151.33 165.409 237.938C161.851 245.181 151.641 245.156 148.102 237.903C105.549 150.712 103.524 96.8583 148.112 15.1553Z" fill="#FCA465" stroke="#FCA465" stroke-width="2"/>
<path d="M138.573 240.919L140.096 240.084L139.461 242.946L140.223 250.221L128.289 247.597L130.32 238.056L135.272 237.222L135.018 238.772L134.764 239.488V239.845L134.827 240.382L135.272 240.919H136.922H138.573Z" fill="#3A0851" stroke="#3A0851"/>
<path d="M182.76 28.1194C189.39 30.9526 191.685 33.7481 193.286 40.8329C186.421 37.659 183.969 34.9717 182.76 28.1194Z" fill="#3A0851"/>
<path d="M174.325 43.2329C179.346 43.0399 181.879 44.008 185.896 47.6109C180.591 47.6737 178.016 46.8105 174.325 43.2329Z" fill="#3A0851"/>
<path d="M199.975 18.971C204.957 24.4228 205.715 28.9039 202.936 36.733C197.926 30.8435 196.94 26.4112 199.975 18.971Z" fill="#3A0851"/>
<path d="M124.125 262.079C162.263 243.483 179.545 228.804 180.719 187.853V79.7407H217.909L216.292 187.853C217.792 232.341 213.5 281.5 180.719 262.079H124.125Z" fill="#3A0751"/>
<path d="M246.937 62.4306L245.294 59.8129L244.308 56.5407L243.322 53.5958L242.008 50.978L240.693 48.6875L239.05 46.397L237.736 45.0881L236.421 43.7792L234.778 42.4703L232.806 41.1615L230.506 39.8526L228.205 38.871L226.233 38.2165L223.933 37.5621L221.633 37.2349H219.004H215.389H212.102L209.802 37.5621L208.159 37.8893L203.558 39.1982L199.614 40.8343L197.314 42.1431L192.713 46.0697L189.098 50.6508L186.469 54.5774L184.169 58.8312L183.511 60.4673L183.183 61.7762L182.526 64.3939L181.868 67.3389L181.54 69.3022L180.951 73.031L180.691 75.8275V80.302V85.3359L217.807 85.8952L218.601 84.0308L220.387 81.2342L222.967 78.6241L226.738 76.3868H226.937L227.334 76.2004L227.731 76.014L228.525 75.7343L230.311 75.0818L233.288 74.336L236.067 73.8833H238.721H242.336L248.252 74.2105L251.538 74.5377L254.204 74.7624L255.436 74.9816L256.708 75.4199L257.899 76.014V74.5225L257.701 73.7767L257.502 73.031L257.105 72.0988L256.708 71.5395L256.311 70.9801L255.716 70.4208L255.12 69.8615L253.731 68.7429L251.945 67.4378L249.762 65.5734L248.252 64.0819L246.937 62.4306Z" fill="#3A0751"/>
<ellipse cx="229.496" cy="53.8839" rx="3.11185" ry="3.12071" fill="#F2C94C"/>
<path d="M148.785 232.933C148.785 248.98 225.682 273.764 125.086 264.997C109.745 264.997 102.293 248.98 102.293 232.933C102.293 216.886 112.701 203.877 125.539 203.877C138.378 203.877 148.785 216.886 148.785 232.933Z" fill="#3A0751"/>
<path d="M207.5 254.5C208.5 265 185.87 275 158.808 275C131.746 275 112 264.5 109 254.5C109 243.454 141.456 247.902 162.5 238.5C186 228 206.5 244 207.5 254.5Z" fill="#3A0751"/>
<path d="M160.5 239.5C160.5 241.985 153.038 247.955 150 247.955C146.962 247.955 144.5 245.94 144.5 243.455C144.5 240.969 145.462 233 148.5 233C148 237 156 242 160.5 239.5Z" fill="#3A0751"/>
</g>
<defs>
<filter id="filter0_d_1004_28381" x="0.979492" y="9.13428" width="311.041" height="273.865" filterUnits="userSpaceOnUse" color-interpolation-filters="sRGB">
<feFlood flood-opacity="0" result="BackgroundImageFix"/>
<feColorMatrix in="SourceAlpha" type="matrix" values="0 0 0 0 0 0 0 0 0 0 0 0 0 0 0 0 0 0 127 0" result="hardAlpha"/>
<feOffset dy="4"/>
<feGaussianBlur stdDeviation="2"/>
<feComposite in2="hardAlpha" operator="out"/>
<feColorMatrix type="matrix" values="0 0 0 0 0 0 0 0 0 0 0 0 0 0 0 0 0 0 0.25 0"/>
<feBlend mode="normal" in2="BackgroundImageFix" result="effect1_dropShadow_1004_28381"/>
<feBlend mode="normal" in="SourceGraphic" in2="effect1_dropShadow_1004_28381" result="shape"/>
</filter>
</defs>
</svg>
