<svg width="17" height="17" viewBox="0 0 17 17" fill="none" xmlns="http://www.w3.org/2000/svg">
<mask id="mask0_0_4" style="mask-type:alpha" maskUnits="userSpaceOnUse" x="0" y="0" width="17" height="17">
<rect width="17" height="17" fill="#D9D9D9"/>
</mask>
<g mask="url(#mask0_0_4)">
<path d="M13.4583 6.375L12.5729 4.42708L10.625 3.54167L12.5729 2.65625L13.4583 0.708333L14.3437 2.65625L16.2917 3.54167L14.3437 4.42708L13.4583 6.375ZM13.4583 16.2917L12.5729 14.3437L10.625 13.4583L12.5729 12.5729L13.4583 10.625L14.3437 12.5729L16.2917 13.4583L14.3437 14.3437L13.4583 16.2917ZM6.375 14.1667L4.60417 10.2708L0.708333 8.5L4.60417 6.72917L6.375 2.83333L8.14583 6.72917L12.0417 8.5L8.14583 10.2708L6.375 14.1667Z" fill="#3A0751"/>
</g>
</svg>
