<svg width="280" height="240" viewBox="0 0 280 240" fill="none" xmlns="http://www.w3.org/2000/svg">
<g clip-path="url(#clip0_1004_27998)">
<path d="M82.3751 20.9268V22.3764C73.4486 23.996 65.001 27.6986 57.2944 33.115C32.0445 50.8609 14.754 87.0174 14.754 128.732H14.374V20.9268H82.3751Z" fill="#F2F2F2"/>
<path d="M138.504 108.952L147.805 107.497L149.15 114.698L139.277 115.754C139.066 116.054 138.821 116.316 138.543 116.528C137.029 117.682 135.122 116.927 134.284 114.842C133.446 112.757 133.994 110.131 135.508 108.978C136.474 108.242 137.598 108.285 138.504 108.952Z" fill="#FFB6B6"/>
<path d="M143.264 116.734C143.021 116.734 142.87 116.714 142.825 116.67C142.183 116.049 142.216 109.008 142.229 107.603L142.23 107.46L165.33 101.927L182.703 61.4114L182.713 61.3976C184.97 58.0907 188.146 56.4328 191.428 56.8493C194.709 57.2655 197.612 59.6947 199.393 63.5137C202.435 70.0399 201.245 78.7158 196.684 83.2648L168.716 112.601L168.683 112.608C164.779 113.336 146.396 116.734 143.264 116.734Z" fill="#3A0751"/>
<path d="M169.416 224.429L165.45 225.581L160.263 204.595L166.116 202.894L169.416 224.429Z" fill="#FFB6B6"/>
<path d="M158.12 236.937C158.328 238.285 159.288 239.147 160.267 238.865L168.152 236.572L168.916 232.308L170.039 236.021L173.015 235.159L170.064 221.598L169.015 221.816L164.737 222.692L163.358 222.979L163.957 226.887L158.577 234.707C158.168 235.302 157.997 236.136 158.12 236.937Z" fill="#2F2E41"/>
<path d="M246.393 223.16L247.063 228.666L231.62 234.925L230.631 226.801L246.393 223.16Z" fill="#FFB6B6"/>
<path d="M254.995 239.226C255.982 238.997 256.647 237.711 256.483 236.352L255.15 225.407L252.089 224.178L254.829 222.788L254.328 218.657L244.366 222.151L244.481 223.602L244.937 229.525L245.087 231.436L247.948 230.775L253.396 238.504C253.811 239.091 254.408 239.361 254.995 239.226Z" fill="#2F2E41"/>
<path d="M187.932 127.069L187.07 139.458C187.07 139.458 160.075 131.199 147.372 136.213L144.943 137.411C142.931 138.403 141.354 140.642 140.787 143.468L140.776 143.524C140.174 146.587 140.481 149.852 141.63 152.606L145.486 162.821L159.046 212.17H169.752C169.752 212.17 166.286 177.315 162.584 159.81L194.175 173.083C194.175 173.083 210.539 172.493 207.525 150.076C204.51 127.659 204.941 123.825 204.941 123.825L187.932 127.069Z" fill="#F86E51"/>
<path d="M183.305 160.792L192.296 162.569C192.296 162.569 185.645 205.225 188.687 222.85L188.572 225.813C189.198 228.615 189 234.677 191.032 235.588L191.073 235.607C193.277 236.578 197.427 238.387 199.49 236.948L205.629 239.088L239.604 237.934L237.098 224.82C237.098 224.82 221.205 222.673 203.373 218.037L215.926 159.149C217.261 154.076 217.082 148.432 215.276 143.645C213.305 138.42 209.273 133.575 201.028 135.095C184.538 138.135 181.763 137.36 181.763 137.36L183.305 160.792Z" fill="#F86E51"/>
<path d="M214.4 141.08C202.816 162.389 196.026 154.189 181.823 138.319C181.823 138.319 182.174 144.281 181.071 133.143C180.696 129.358 177.622 120.861 177.813 116.923C178.565 101.393 172.551 97.9423 172.551 97.9423C172.551 97.9423 167.288 79.6521 175.558 72.405L181.572 58.601L179.943 51.1229L192.849 45.1421L196.575 52.0855C202.49 63.105 206.014 76.2078 206.741 89.8742C207.001 94.7801 206.899 99.7098 206.434 104.587L205.128 118.303C211.207 125.559 214.259 133.156 214.4 141.08Z" fill="#3A0751"/>
<path d="M60.2435 72.1979L41.8534 83.2142C40.7116 83.8982 39.3787 83.1754 38.882 81.603C33.3591 73.2725 30.378 63.6537 29.7909 52.8215C29.2942 51.2491 29.8191 49.4134 30.9609 48.7295L49.351 37.7131C50.4928 37.0292 51.8258 37.7519 52.3224 39.3243L61.4135 68.1059C61.9102 69.6783 61.3853 71.5139 60.2435 72.1979Z" fill="#E6E6E6"/>
<path d="M35.1692 47.2189C32.1902 49.0034 30.8257 53.7757 32.1215 57.8782L39.3058 80.6229C39.7616 82.0658 40.9804 82.7267 42.0282 82.099L52.198 76.007C57.2959 72.9532 59.6309 64.7863 57.4134 57.7657L51.898 40.3047C51.4423 38.8618 50.2234 38.2009 49.1757 38.8285L35.1692 47.2189Z" fill="white"/>
<path d="M47.3483 49.8696L38.7382 55.0273C38.5212 55.1573 38.2677 55.0199 38.1733 54.721C38.0789 54.422 38.1787 54.0731 38.3958 53.9431L47.0058 48.7854C47.2229 48.6554 47.4762 48.7927 47.5706 49.0917C47.665 49.3906 47.5653 49.7396 47.3483 49.8696Z" fill="#E6E6E6"/>
<path d="M50.9996 61.4297L42.3896 66.5874C42.1725 66.7174 41.9191 66.58 41.8247 66.281C41.7303 65.9821 41.8301 65.6332 42.0472 65.5032L50.6572 60.3455C50.8742 60.2154 51.1276 60.3528 51.222 60.6517C51.3164 60.9506 51.2167 61.2996 50.9996 61.4297Z" fill="#E6E6E6"/>
<path d="M53.7957 52.8857L35.9453 63.5788C35.7282 63.7088 35.4748 63.5714 35.3803 63.2724C35.2859 62.9735 35.3858 62.6246 35.6028 62.4946L53.4533 51.8015C53.6703 51.6715 53.9237 51.8088 54.0181 52.1078C54.1125 52.4067 54.0128 52.7557 53.7957 52.8857Z" fill="#E6E6E6"/>
<path d="M57.3155 63.2363L49.8672 67.6981C49.6501 67.8282 49.3966 67.6907 49.3022 67.3918C49.2078 67.0929 49.3076 66.7439 49.5247 66.6139L56.9731 62.1521C57.1901 62.0221 57.4434 62.1594 57.5379 62.4584C57.6323 62.7573 57.5326 63.1063 57.3155 63.2363Z" fill="#E6E6E6"/>
<path d="M43.0904 153.11H23.0358C21.7906 153.11 20.7777 151.715 20.7777 150.001C18.1261 139.328 18.1785 128.87 20.7777 118.614C20.7777 116.899 21.7906 115.504 23.0358 115.504H43.0904C44.3356 115.504 45.3485 116.899 45.3485 118.614V150.001C45.3485 151.715 44.3356 153.11 43.0904 153.11Z" fill="#E6E6E6"/>
<path d="M27.3324 116.431C24.0837 116.431 21.4502 120.057 21.4502 124.531V149.334C21.4502 150.908 22.3765 152.184 23.519 152.184H34.6093C40.1687 152.184 44.6754 145.977 44.6754 138.321V119.28C44.6754 117.706 43.7492 116.431 42.6066 116.431H27.3324Z" fill="white"/>
<path d="M37.7337 125.552H28.3444C28.1076 125.552 27.915 125.287 27.915 124.961C27.915 124.635 28.1076 124.37 28.3444 124.37H37.7337C37.9704 124.37 38.1629 124.635 38.1629 124.961C38.1629 125.287 37.9704 125.552 37.7337 125.552Z" fill="#E6E6E6"/>
<path d="M37.7337 138.158H28.3444C28.1076 138.158 27.915 137.893 27.915 137.567C27.915 137.241 28.1076 136.976 28.3444 136.976H37.7337C37.9704 136.976 38.1629 137.241 38.1629 137.567C38.1629 137.893 37.9704 138.158 37.7337 138.158Z" fill="#E6E6E6"/>
<path d="M42.7724 131.859H23.3063C23.0696 131.859 22.877 131.594 22.877 131.268C22.877 130.942 23.0696 130.677 23.3063 130.677H42.7724C43.0091 130.677 43.2016 130.942 43.2016 131.268C43.2016 131.594 43.0091 131.859 42.7724 131.859Z" fill="#E6E6E6"/>
<path d="M43.002 143.284H34.8795C34.6428 143.284 34.4502 143.019 34.4502 142.693C34.4502 142.367 34.6428 142.102 34.8795 142.102H43.002C43.2387 142.102 43.4313 142.367 43.4313 142.693C43.4313 143.019 43.2387 143.284 43.002 143.284Z" fill="#E6E6E6"/>
<path d="M176.111 204.127L159.354 193.939C158.314 193.307 157.841 191.627 158.301 190.194C158.944 179.93 161.789 171.218 166.707 163.97C167.167 162.537 168.387 161.886 169.427 162.519L186.183 172.706C187.224 173.338 187.696 175.018 187.237 176.451L178.83 202.675C178.371 204.108 177.151 204.759 176.111 204.127Z" fill="#E6E6E6"/>
<path d="M172.769 165.475C170.055 163.825 166.883 165.518 165.685 169.256L159.041 189.979C158.62 191.294 159.052 192.83 160.007 193.411L169.273 199.044C173.918 201.868 179.346 198.972 181.396 192.575L186.497 176.666C186.918 175.351 186.486 173.815 185.531 173.234L172.769 165.475Z" fill="white"/>
<path d="M179.016 178.38L171.171 173.611C170.973 173.49 170.884 173.171 170.971 172.898C171.058 172.626 171.29 172.502 171.488 172.623L179.333 177.392C179.531 177.512 179.621 177.832 179.533 178.104C179.446 178.376 179.214 178.5 179.016 178.38Z" fill="#E6E6E6"/>
<path d="M175.639 188.913L167.794 184.144C167.597 184.023 167.507 183.704 167.594 183.432C167.681 183.159 167.913 183.036 168.111 183.156L175.956 187.925C176.154 188.046 176.244 188.365 176.156 188.637C176.069 188.91 175.837 189.033 175.639 188.913Z" fill="#E6E6E6"/>
<path d="M181.536 186.209L165.272 176.321C165.074 176.201 164.984 175.881 165.071 175.609C165.159 175.337 165.391 175.213 165.589 175.333L181.853 185.221C182.051 185.342 182.141 185.661 182.053 185.933C181.966 186.206 181.734 186.329 181.536 186.209Z" fill="#E6E6E6"/>
<path d="M178.668 195.871L171.881 191.745C171.683 191.625 171.594 191.306 171.681 191.033C171.768 190.761 172 190.637 172.198 190.757L178.984 194.883C179.182 195.004 179.272 195.323 179.185 195.595C179.097 195.868 178.866 195.992 178.668 195.871Z" fill="#E6E6E6"/>
<path d="M44.7369 73.3838H24.6823C23.4371 73.3838 22.4241 71.9888 22.4241 70.2741C19.7726 59.6012 19.825 49.1432 22.4241 38.8875C22.4241 37.1728 23.4371 35.7778 24.6823 35.7778H44.7369C45.982 35.7778 46.995 37.1728 46.995 38.8875V70.2741C46.995 71.9888 45.982 73.3838 44.7369 73.3838Z" fill="#3F3D56"/>
<path d="M28.9789 36.7046C25.7302 36.7046 23.0967 40.3313 23.0967 44.8051V69.6084C23.0967 71.1819 24.0229 72.4575 25.1655 72.4575H36.2558C41.8152 72.4575 46.3219 66.2511 46.3219 58.5952V39.5537C46.3219 37.9802 45.3957 36.7046 44.2531 36.7046H28.9789Z" fill="#F2C85B"/>
<path d="M39.3802 45.8254H29.9908C29.7541 45.8254 29.5615 45.5602 29.5615 45.2342C29.5615 44.9082 29.7541 44.6431 29.9908 44.6431H39.3802C39.6169 44.6431 39.8094 44.9082 39.8094 45.2342C39.8094 45.5602 39.6169 45.8254 39.3802 45.8254Z" fill="#3F3D56"/>
<path d="M39.3802 58.4319H29.9908C29.7541 58.4319 29.5615 58.1666 29.5615 57.8406C29.5615 57.5146 29.7541 57.2495 29.9908 57.2495H39.3802C39.6169 57.2495 39.8094 57.5146 39.8094 57.8406C39.8094 58.1666 39.6169 58.4319 39.3802 58.4319Z" fill="#3F3D56"/>
<path d="M44.4189 52.133H24.9528C24.716 52.133 24.5234 51.8678 24.5234 51.5418C24.5234 51.2158 24.716 50.9507 24.9528 50.9507H44.4189C44.6556 50.9507 44.8481 51.2158 44.8481 51.5418C44.8481 51.8678 44.6556 52.133 44.4189 52.133Z" fill="#3F3D56"/>
<path d="M44.6485 63.5578H36.526C36.2893 63.5578 36.0967 63.2926 36.0967 62.9666C36.0967 62.6406 36.2893 62.3755 36.526 62.3755H44.6485C44.8852 62.3755 45.0778 62.6406 45.0778 62.9666C45.0778 63.2926 44.8852 63.5578 44.6485 63.5578Z" fill="#3F3D56"/>
<path d="M161.86 109.568L146.996 124.308C146.073 125.223 144.782 124.933 144.117 123.663C138.016 117.701 134.002 109.911 131.953 100.4C131.289 99.129 131.499 97.3506 132.422 96.4355L147.286 81.696C148.209 80.7808 149.5 81.0703 150.165 82.3412L162.328 105.604C162.993 106.875 162.782 108.653 161.86 109.568Z" fill="#3F3D56"/>
<path d="M135.966 93.9642C133.558 96.3519 133.012 100.975 134.745 104.291L144.358 122.675C144.968 123.841 146.148 124.106 146.995 123.266L155.215 115.115C159.335 111.029 160.27 103.117 157.303 97.4422L149.924 83.3293C149.314 82.1631 148.133 81.8985 147.287 82.7382L135.966 93.9642Z" fill="#F2C85B"/>
<path d="M147.209 93.08L140.25 99.9808C140.075 100.155 139.829 100.1 139.703 99.8581C139.576 99.6165 139.616 99.2784 139.792 99.1045L146.751 92.2036C146.926 92.0297 147.172 92.0847 147.298 92.3263C147.424 92.5679 147.384 92.906 147.209 93.08Z" fill="#3F3D56"/>
<path d="M152.095 102.423L145.136 109.324C144.96 109.498 144.715 109.443 144.588 109.201C144.462 108.96 144.502 108.622 144.678 108.448L151.637 101.547C151.812 101.373 152.057 101.428 152.184 101.67C152.31 101.911 152.27 102.249 152.095 102.423Z" fill="#3F3D56"/>
<path d="M153.388 94.0516L138.96 108.359C138.785 108.533 138.539 108.478 138.413 108.236C138.286 107.994 138.326 107.656 138.502 107.482L152.929 93.1753C153.105 93.0013 153.35 93.0564 153.477 93.298C153.603 93.5396 153.563 93.8777 153.388 94.0516Z" fill="#3F3D56"/>
<path d="M157.986 102.351L151.966 108.321C151.79 108.495 151.545 108.44 151.418 108.198C151.292 107.956 151.332 107.618 151.508 107.444L157.528 101.475C157.703 101.301 157.949 101.356 158.075 101.597C158.201 101.839 158.161 102.177 157.986 102.351Z" fill="#3F3D56"/>
<path d="M68.2898 230.774V238.394C68.2898 238.867 67.0676 239.252 65.5654 239.252C56.215 240.26 47.0529 240.24 38.0681 239.252C36.5659 239.252 35.3438 238.867 35.3438 238.394V230.774C35.3438 230.3 36.5659 229.916 38.0681 229.916H65.5654C67.0676 229.916 68.2898 230.3 68.2898 230.774Z" fill="#E6E6E6"/>
<path d="M36.1553 236.761C36.1553 237.996 39.3326 238.997 43.252 238.997H64.9818C66.3603 238.997 67.4778 238.645 67.4778 238.21V233.996C67.4778 231.884 62.0405 230.171 55.3333 230.171H38.6513C37.2728 230.171 36.1553 230.523 36.1553 230.958L36.1553 236.761Z" fill="white"/>
<path d="M44.1462 232.809V236.377C44.1462 236.467 43.9138 236.54 43.6282 236.54C43.3426 236.54 43.1104 236.467 43.1104 236.377V232.809C43.1104 232.719 43.3426 232.646 43.6282 232.646C43.9138 232.646 44.1462 232.719 44.1462 232.809Z" fill="#E6E6E6"/>
<path d="M55.1901 232.809V236.377C55.1901 236.467 54.9577 236.54 54.6722 236.54C54.3866 236.54 54.1543 236.467 54.1543 236.377V232.809C54.1543 232.719 54.3866 232.646 54.6722 232.646C54.9577 232.646 55.1901 232.719 55.1901 232.809Z" fill="#E6E6E6"/>
<path d="M49.6716 230.895V238.291C49.6716 238.381 49.4392 238.454 49.1536 238.454C48.868 238.454 48.6357 238.381 48.6357 238.291V230.895C48.6357 230.805 48.868 230.731 49.1536 230.731C49.4392 230.731 49.6716 230.805 49.6716 230.895Z" fill="#E6E6E6"/>
<path d="M59.6813 230.807V233.894C59.6813 233.983 59.449 234.057 59.1634 234.057C58.8778 234.057 58.6455 233.983 58.6455 233.894V230.807C58.6455 230.717 58.8778 230.644 59.1634 230.644C59.449 230.644 59.6813 230.717 59.6813 230.807Z" fill="#E6E6E6"/>
<path d="M109.007 230.774V238.394C109.007 238.867 107.784 239.252 106.282 239.252C96.9318 240.26 87.7697 240.24 78.7849 239.252C77.2827 239.252 76.0605 238.867 76.0605 238.394V230.774C76.0605 230.3 77.2827 229.916 78.7849 229.916H106.282C107.784 229.916 109.007 230.3 109.007 230.774Z" fill="#E6E6E6"/>
<path d="M76.8721 236.761C76.8721 237.996 80.0494 238.997 83.9688 238.997H105.699C107.077 238.997 108.195 238.645 108.195 238.21V233.996C108.195 231.884 102.757 230.171 96.0501 230.171H79.3681C77.9896 230.171 76.8721 230.523 76.8721 230.958L76.8721 236.761Z" fill="#F2F2F2"/>
<path d="M84.863 232.809V236.377C84.863 236.467 84.6306 236.54 84.345 236.54C84.0594 236.54 83.8271 236.467 83.8271 236.377V232.809C83.8271 232.719 84.0594 232.646 84.345 232.646C84.6306 232.646 84.863 232.719 84.863 232.809Z" fill="#E6E6E6"/>
<path d="M95.9069 232.809V236.377C95.9069 236.467 95.6745 236.54 95.389 236.54C95.1034 236.54 94.8711 236.467 94.8711 236.377V232.809C94.8711 232.719 95.1034 232.646 95.389 232.646C95.6745 232.646 95.9069 232.719 95.9069 232.809Z" fill="#E6E6E6"/>
<path d="M90.3884 230.895V238.291C90.3884 238.381 90.156 238.454 89.8704 238.454C89.5848 238.454 89.3525 238.381 89.3525 238.291V230.895C89.3525 230.805 89.5848 230.731 89.8704 230.731C90.156 230.731 90.3884 230.805 90.3884 230.895Z" fill="#E6E6E6"/>
<path d="M100.398 230.807V233.894C100.398 233.983 100.166 234.057 99.8802 234.057C99.5946 234.057 99.3623 233.983 99.3623 233.894V230.807C99.3623 230.717 99.5946 230.644 99.8802 230.644C100.166 230.644 100.398 230.717 100.398 230.807Z" fill="#E6E6E6"/>
<path d="M175.169 131.721V137.49C175.169 137.848 174.244 138.14 173.107 138.14C166.028 138.902 159.092 138.887 152.291 138.14C151.154 138.14 150.229 137.848 150.229 137.49V131.721C150.229 131.363 151.154 131.072 152.291 131.072H173.107C174.244 131.072 175.169 131.363 175.169 131.721Z" fill="#E6E6E6"/>
<path d="M150.843 136.254C150.843 137.188 153.248 137.946 156.215 137.946H172.665C173.708 137.946 174.554 137.679 174.554 137.351V134.161C174.554 132.562 170.438 131.265 165.361 131.265H152.732C151.689 131.265 150.843 131.532 150.843 131.86V136.254Z" fill="#F2F2F2"/>
<path d="M156.893 133.262V135.963C156.893 136.031 156.717 136.086 156.5 136.086C156.284 136.086 156.108 136.031 156.108 135.963V133.262C156.108 133.194 156.284 133.139 156.5 133.139C156.717 133.139 156.893 133.194 156.893 133.262Z" fill="#E6E6E6"/>
<path d="M165.253 133.262V135.963C165.253 136.031 165.077 136.086 164.861 136.086C164.645 136.086 164.469 136.031 164.469 135.963V133.262C164.469 133.194 164.645 133.139 164.861 133.139C165.077 133.139 165.253 133.194 165.253 133.262Z" fill="#E6E6E6"/>
<path d="M161.075 131.813V137.412C161.075 137.48 160.899 137.536 160.683 137.536C160.467 137.536 160.291 137.48 160.291 137.412V131.813C160.291 131.745 160.467 131.689 160.683 131.689C160.899 131.689 161.075 131.745 161.075 131.813Z" fill="#E6E6E6"/>
<path d="M168.652 131.747V134.083C168.652 134.152 168.476 134.207 168.26 134.207C168.044 134.207 167.868 134.152 167.868 134.083V131.747C167.868 131.679 168.044 131.624 168.26 131.624C168.476 131.624 168.652 131.679 168.652 131.747Z" fill="#E6E6E6"/>
<path d="M168.066 158.083L174.844 149.19L179.073 153.813L171.664 162.864C171.628 163.277 171.547 163.691 171.418 164.091C170.717 166.27 168.866 167.253 167.284 166.287C165.702 165.322 164.988 162.773 165.689 160.594C166.137 159.205 167.052 158.305 168.066 158.083Z" fill="#FFB6B6"/>
<path d="M175.273 160.33C175.079 160.532 174.95 160.641 174.894 160.644C174.11 160.683 171.05 155.043 170.445 153.912L170.383 153.796L186.374 130.181L182.463 83.4379L182.465 83.419C182.815 78.9063 184.62 74.9437 187.419 72.5479C190.217 70.1516 193.597 69.6748 196.69 71.2393C201.976 73.913 204.831 81.8185 203.189 89.237L193.752 135.876L193.728 135.908C190.935 139.735 177.77 157.726 175.273 160.33Z" fill="#3A0751"/>
<path d="M280 238.577H0V239.489H280V238.577Z" fill="#CCCCCC"/>
<path d="M35.4566 39.1804C37.1235 39.1804 38.4747 37.3195 38.4747 35.024C38.4747 32.7285 37.1235 30.8677 35.4566 30.8677C33.7897 30.8677 32.4385 32.7285 32.4385 35.024C32.4385 37.3195 33.7897 39.1804 35.4566 39.1804Z" fill="#3F3D56"/>
<path d="M33.2623 119.663C34.9291 119.663 36.2804 117.802 36.2804 115.506C36.2804 113.211 34.9291 111.35 33.2623 111.35C31.5954 111.35 30.2441 113.211 30.2441 115.506C30.2441 117.802 31.5954 119.663 33.2623 119.663Z" fill="#F2F2F2"/>
<path d="M91.3132 60.3314C93.3242 60.3314 94.9545 58.0863 94.9545 55.3168C94.9545 52.5473 93.3242 50.3022 91.3132 50.3022C89.3022 50.3022 87.6719 52.5473 87.6719 55.3168C87.6719 58.0863 89.3022 60.3314 91.3132 60.3314Z" fill="#F2F2F2"/>
<path d="M131.443 80.8722C131.146 76.1997 129.738 71.7359 127.483 68.2233C125.287 64.8014 122.285 62.4541 119.048 61.4978C117.241 60.964 115.369 60.8599 113.539 61.2194C113.101 61.3055 113.113 62.2634 113.555 62.1764C116.67 61.5644 119.889 62.3121 122.688 64.2927C125.556 66.3228 127.852 69.6246 129.271 73.6062C130.082 75.8832 130.588 78.3682 130.748 80.8946C130.787 81.5062 131.482 81.4873 131.443 80.8722Z" fill="#E6E6E6"/>
<path d="M114.31 57.3774L108.96 61.0126C108.765 61.1448 108.733 61.5812 108.899 61.7695L113.963 67.5352C114.306 67.9254 114.789 67.2359 114.443 66.8426L109.378 61.0769L109.317 61.8338L114.667 58.1987C115.069 57.9257 114.709 57.1066 114.31 57.3774Z" fill="#E6E6E6"/>
<path d="M55.6865 125.17C58.8113 123.305 61.4405 120.052 63.147 115.996C64.8093 112.044 65.4766 107.38 65.1112 102.848C64.9072 100.319 64.3868 97.8402 63.5601 95.5632C63.3622 95.0182 62.7061 95.3364 62.9061 95.8873C64.313 99.7626 64.8164 104.205 64.3374 108.488C63.8466 112.877 62.2984 116.921 60.0044 120.034C58.6925 121.814 57.1407 123.261 55.4511 124.27C55.0421 124.514 55.2751 125.416 55.6865 125.17Z" fill="#E6E6E6"/>
<path d="M66.4502 95.3544L62.2535 89.515C62.1009 89.3026 61.7901 89.3989 61.7127 89.6744L59.3434 98.1152C59.183 98.6865 59.8106 99.0987 59.9722 98.523L62.3416 90.0822L61.8008 90.2416L65.9975 96.0811C66.3127 96.5197 66.7628 95.7894 66.4502 95.3544Z" fill="#E6E6E6"/>
<path d="M172.357 36.7721C172.41 35.3995 171.879 43.8553 172.791 43.7168C176.946 43.0783 183.058 44.6535 186.137 45.3167C186.26 45.2563 186.384 45.1959 186.503 45.1316C186.798 44.9904 187.082 44.8312 187.36 44.6631C193.641 40.8795 193.854 26.193 193.833 26.0661C193.729 25.4417 189.786 8.6357 188.029 8.92308C187.574 8.99739 187.116 9.10453 186.657 9.24955L182.403 10.5925C181.455 10.6139 180.528 10.7141 179.644 10.9026L179.636 10.9049C170.923 12.71 165.367 22.0301 167.454 30.5776C167.46 30.5865 167.469 30.5943 167.474 30.6033C167.72 30.9212 167.94 31.2259 168.138 31.5212C168.33 31.7974 168.496 32.0654 168.645 32.3229C169.797 34.3101 168.259 37.7542 169.677 37.8588C171.562 37.9979 167.79 62.742 175.961 60.7478C169.293 57.5655 172.212 40.5583 172.357 36.7721Z" fill="#2F2E41"/>
<path d="M179.934 48.1744C185.64 48.1744 190.266 41.8035 190.266 33.9446C190.266 26.0857 185.64 19.7148 179.934 19.7148C174.227 19.7148 169.601 26.0857 169.601 33.9446C169.601 41.8035 174.227 48.1744 179.934 48.1744Z" fill="#FFB6B6"/>
<path d="M196.608 28.9224C196.565 30.2475 193.61 42.0361 189.591 42.0361C188.84 42.0361 187.837 36.8596 187.085 32.0283C187.022 31.6199 188.243 62.7007 187.95 62.8422C188.088 58.2558 183.592 43.03 183.78 39.931C184.452 28.8085 182.023 30.0228 178.043 27.9557L178.044 28.032C177.167 26.8863 176.571 25.3368 176.388 23.6906C176.167 25.2988 176.172 26.9553 176.39 28.5531C175.668 30.7617 174.32 31.8419 172.508 32.0904C172.25 30.7583 171.732 29.333 171.255 29.0535C171.348 30.0612 171.351 31.1206 171.205 32.1352C170.436 32.0938 169.677 34.6924 168.792 34.4439C168.599 34.3956 168.835 38.8302 168.639 38.768C168.454 38.7094 168.271 38.6507 168.08 38.5817C168.04 38.3367 166.817 37.7983 166.787 37.5498C165.883 30.4201 165.805 17.8964 170.962 15.9707C171.098 15.9155 171.235 15.8672 171.373 15.8258L179.117 13.2652C179.026 12.713 179.074 12.1609 179.239 11.6812C179.332 11.3913 179.47 11.129 179.638 10.9116C179.64 10.9081 179.64 10.9047 179.643 10.9012C179.873 10.6045 180.159 10.3836 180.487 10.2801C180.54 10.2628 180.598 10.249 180.653 10.2352C181.472 10.0833 182.287 10.004 183.096 9.98328C183.492 9.97292 183.888 9.97982 184.281 10.0005C184.314 10.0005 184.341 10.0005 184.372 10.004C185.667 10.0799 186.94 10.3146 188.178 10.708C190.326 11.6812 192.233 13.486 193.656 15.8948C194.754 17.748 195.563 19.9566 195.974 22.4345C196.147 25.4921 196.773 23.7148 196.608 28.9224Z" fill="#2F2E41"/>
<path d="M197.129 18.3171C196.857 17.7101 196.465 17.0983 196.008 16.588C196.165 16.4802 196.318 16.362 196.46 16.2254C197.723 15.0128 198.083 12.3595 195.804 10.9326C194.751 10.2729 194.09 8.5115 193.109 7.30256C193.109 7.30256 189.942 3.59246 190.031 3.87161C189.144 2.70898 188.878 1.26895 188.2 0C187.993 1.53292 188.259 3.53005 188.834 4.95287C188.272 4.90964 187.609 4.71662 187.303 4.41813C184.932 2.10845 183.18 2.69807 181.092 5.19217C179.731 6.81909 178.903 8.35866 179.438 10.4403C179.731 11.5849 180.335 12.3481 181.302 12.846C182.327 13.3737 184.359 14.1778 185.43 13.7256L191.492 17.0368C191.962 17.1806 192.517 17.2838 193.099 17.3111C194.163 17.7435 195.342 18.7362 196.045 19.7276C196.918 20.9575 197.129 22.4348 197.77 23.7644C198.059 22.0817 197.789 19.7876 197.129 18.3171Z" fill="#2F2E41"/>
</g>
<defs>
<clipPath id="clip0_1004_27998">
<rect width="280" height="240" fill="white"/>
</clipPath>
</defs>
</svg>
